{
	"patcher" : 	{
		"fileversion" : 1,
		"appversion" : 		{
			"major" : 8,
			"minor" : 2,
			"revision" : 1,
			"architecture" : "x64",
			"modernui" : 1
		}
,
		"classnamespace" : "box",
		"rect" : [ 640.0, 79.0, 640.0, 480.0 ],
		"bglocked" : 0,
		"openinpresentation" : 0,
		"default_fontsize" : 10.0,
		"default_fontface" : 0,
		"default_fontname" : "Andale Mono",
		"gridonopen" : 1,
		"gridsize" : [ 10.0, 10.0 ],
		"gridsnaponopen" : 1,
		"objectsnaponopen" : 1,
		"statusbarvisible" : 2,
		"toolbarvisible" : 1,
		"lefttoolbarpinned" : 0,
		"toptoolbarpinned" : 0,
		"righttoolbarpinned" : 0,
		"bottomtoolbarpinned" : 0,
		"toolbars_unpinned_last_save" : 0,
		"tallnewobj" : 0,
		"boxanimatetime" : 200,
		"enablehscroll" : 1,
		"enablevscroll" : 1,
		"devicewidth" : 0.0,
		"description" : "",
		"digest" : "",
		"tags" : "",
		"style" : "",
		"subpatcher_template" : "",
		"assistshowspatchername" : 0,
		"boxes" : [ 			{
				"box" : 				{
					"id" : "obj-25",
					"maxclass" : "message",
					"numinlets" : 2,
					"numoutlets" : 1,
					"outlettype" : [ "" ],
					"patching_rect" : [ 106.0, 110.0, 39.0, 20.0 ],
					"text" : "clear"
				}

			}
, 			{
				"box" : 				{
					"id" : "obj-27",
					"maxclass" : "newobj",
					"numinlets" : 1,
					"numoutlets" : 0,
					"patching_rect" : [ 15.0, 187.0, 99.0, 20.0 ],
					"text" : "capture~ f 1024"
				}

			}
, 			{
				"box" : 				{
					"id" : "obj-6",
					"maxclass" : "newobj",
					"numinlets" : 2,
					"numoutlets" : 1,
					"outlettype" : [ "float" ],
					"patching_rect" : [ 279.0, 183.0, 39.0, 20.0 ],
					"text" : "* 0.5"
				}

			}
, 			{
				"box" : 				{
					"fontname" : "Andale Mono",
					"fontsize" : 10.0,
					"id" : "obj-21",
					"maxclass" : "newobj",
					"numinlets" : 2,
					"numoutlets" : 1,
					"outlettype" : [ "float" ],
					"patching_rect" : [ 279.0, 159.0, 35.0, 20.0 ],
					"text" : "* 1."
				}

			}
, 			{
				"box" : 				{
					"id" : "obj-19",
					"maxclass" : "newobj",
					"numinlets" : 2,
					"numoutlets" : 1,
					"outlettype" : [ "float" ],
					"patching_rect" : [ 350.0, 183.0, 39.0, 20.0 ],
					"text" : "* 0.5"
				}

			}
, 			{
				"box" : 				{
					"fontface" : 0,
					"fontname" : "Andale Mono",
					"fontsize" : 10.0,
					"id" : "obj-5",
					"maxclass" : "number~",
					"mode" : 2,
					"numinlets" : 2,
					"numoutlets" : 2,
					"outlettype" : [ "signal", "float" ],
					"patching_rect" : [ 354.5, 283.0, 56.0, 20.0 ],
					"sig" : 0.0
				}

			}
, 			{
				"box" : 				{
					"fontname" : "Andale Mono",
					"fontsize" : 10.0,
					"id" : "obj-32",
					"maxclass" : "newobj",
					"numinlets" : 1,
					"numoutlets" : 2,
					"outlettype" : [ "float", "float" ],
					"patching_rect" : [ 439.5, 252.0, 41.0, 20.0 ],
					"text" : "t f f"
				}

			}
, 			{
				"box" : 				{
					"fontname" : "Andale Mono",
					"fontsize" : 10.0,
					"id" : "obj-30",
					"maxclass" : "newobj",
					"numinlets" : 2,
					"numoutlets" : 1,
					"outlettype" : [ "signal" ],
					"patching_rect" : [ 452.5, 384.0, 131.0, 20.0 ],
					"text" : "delay~ 441000 441000"
				}

			}
, 			{
				"box" : 				{
					"id" : "obj-28",
					"maxclass" : "meter~",
					"numinlets" : 1,
					"numoutlets" : 1,
					"outlettype" : [ "float" ],
					"patching_rect" : [ 497.5, 416.0, 80.0, 13.0 ]
				}

			}
, 			{
				"box" : 				{
					"fontname" : "Andale Mono",
					"fontsize" : 10.0,
					"id" : "obj-17",
					"maxclass" : "newobj",
					"numinlets" : 1,
					"numoutlets" : 1,
					"outlettype" : [ "signal" ],
					"patching_rect" : [ 260.0, 90.0, 41.0, 20.0 ],
					"text" : "in~ 2"
				}

			}
, 			{
				"box" : 				{
					"fontname" : "Andale Mono",
					"fontsize" : 10.0,
					"id" : "obj-16",
					"maxclass" : "newobj",
					"numinlets" : 2,
					"numoutlets" : 1,
					"outlettype" : [ "int" ],
					"patching_rect" : [ 348.0, 120.0, 32.5, 20.0 ],
					"text" : "- 1"
				}

			}
, 			{
				"box" : 				{
					"fontname" : "Andale Mono",
					"fontsize" : 10.0,
					"format" : 6,
					"id" : "obj-26",
					"maxclass" : "flonum",
					"numinlets" : 1,
					"numoutlets" : 2,
					"outlettype" : [ "", "bang" ],
					"parameter_enable" : 0,
					"patching_rect" : [ 350.0, 216.0, 130.0, 20.0 ]
				}

			}
, 			{
				"box" : 				{
					"fontname" : "Andale Mono",
					"fontsize" : 10.0,
					"id" : "obj-24",
					"maxclass" : "newobj",
					"numinlets" : 2,
					"numoutlets" : 1,
					"outlettype" : [ "signal" ],
					"patching_rect" : [ 209.5, 261.0, 93.0, 20.0 ],
					"text" : "index~ #2"
				}

			}
, 			{
				"box" : 				{
					"fontname" : "Andale Mono",
					"fontsize" : 10.0,
					"id" : "obj-23",
					"maxclass" : "newobj",
					"numinlets" : 2,
					"numoutlets" : 1,
					"outlettype" : [ "float" ],
					"patching_rect" : [ 350.0, 159.0, 35.0, 20.0 ],
					"text" : "* 1."
				}

			}
, 			{
				"box" : 				{
					"fontname" : "Andale Mono",
					"fontsize" : 10.0,
					"id" : "obj-22",
					"maxclass" : "newobj",
					"numinlets" : 2,
					"numoutlets" : 1,
					"outlettype" : [ "signal" ],
					"patching_rect" : [ 209.5, 216.0, 32.5, 20.0 ],
					"text" : "+~"
				}

			}
, 			{
				"box" : 				{
					"fontname" : "Andale Mono",
					"fontsize" : 10.0,
					"id" : "obj-20",
					"maxclass" : "newobj",
					"numinlets" : 1,
					"numoutlets" : 3,
					"outlettype" : [ "int", "int", "int" ],
					"patching_rect" : [ 350.0, 70.0, 65.0, 20.0 ],
					"text" : "thispoly~"
				}

			}
, 			{
				"box" : 				{
					"fontname" : "Andale Mono",
					"fontsize" : 10.0,
					"format" : 6,
					"id" : "obj-18",
					"maxclass" : "flonum",
					"numinlets" : 1,
					"numoutlets" : 2,
					"outlettype" : [ "", "bang" ],
					"parameter_enable" : 0,
					"patching_rect" : [ 350.0, 90.0, 50.0, 20.0 ]
				}

			}
, 			{
				"box" : 				{
					"fontname" : "Andale Mono",
					"fontsize" : 10.0,
					"format" : 6,
					"id" : "obj-13",
					"maxclass" : "flonum",
					"numinlets" : 1,
					"numoutlets" : 2,
					"outlettype" : [ "", "bang" ],
					"parameter_enable" : 0,
					"patching_rect" : [ 570.0, 90.0, 50.0, 20.0 ]
				}

			}
, 			{
				"box" : 				{
					"fontname" : "Andale Mono",
					"fontsize" : 10.0,
					"id" : "obj-15",
					"maxclass" : "newobj",
					"numinlets" : 2,
					"numoutlets" : 1,
					"outlettype" : [ "float" ],
					"patching_rect" : [ 570.0, 70.0, 35.0, 20.0 ],
					"text" : "f #4"
				}

			}
, 			{
				"box" : 				{
					"fontname" : "Andale Mono",
					"fontsize" : 10.0,
					"format" : 6,
					"id" : "obj-10",
					"maxclass" : "flonum",
					"numinlets" : 1,
					"numoutlets" : 2,
					"outlettype" : [ "", "bang" ],
					"parameter_enable" : 0,
					"patching_rect" : [ 520.0, 90.0, 50.0, 20.0 ]
				}

			}
, 			{
				"box" : 				{
					"fontname" : "Andale Mono",
					"fontsize" : 10.0,
					"id" : "obj-12",
					"maxclass" : "newobj",
					"numinlets" : 2,
					"numoutlets" : 1,
					"outlettype" : [ "float" ],
					"patching_rect" : [ 520.0, 70.0, 35.0, 20.0 ],
					"text" : "f #3"
				}

			}
, 			{
				"box" : 				{
					"fontname" : "Andale Mono",
					"fontsize" : 10.0,
					"format" : 6,
					"id" : "obj-7",
					"maxclass" : "flonum",
					"numinlets" : 1,
					"numoutlets" : 2,
					"outlettype" : [ "", "bang" ],
					"parameter_enable" : 0,
					"patching_rect" : [ 470.0, 90.0, 50.0, 20.0 ]
				}

			}
, 			{
				"box" : 				{
					"fontname" : "Andale Mono",
					"fontsize" : 10.0,
					"id" : "obj-8",
					"maxclass" : "newobj",
					"numinlets" : 1,
					"numoutlets" : 1,
					"outlettype" : [ "" ],
					"patching_rect" : [ 470.0, 70.0, 63.0, 20.0 ],
					"text" : "f #2"
				}

			}
, 			{
				"box" : 				{
					"fontname" : "Andale Mono",
					"fontsize" : 10.0,
					"id" : "obj-3",
					"maxclass" : "newobj",
					"numinlets" : 1,
					"numoutlets" : 1,
					"outlettype" : [ "bang" ],
					"patching_rect" : [ 420.0, 20.0, 59.0, 20.0 ],
					"text" : "loadbang"
				}

			}
, 			{
				"box" : 				{
					"fontname" : "Andale Mono",
					"fontsize" : 10.0,
					"format" : 6,
					"id" : "obj-11",
					"maxclass" : "flonum",
					"numinlets" : 1,
					"numoutlets" : 2,
					"outlettype" : [ "", "bang" ],
					"parameter_enable" : 0,
					"patching_rect" : [ 420.0, 90.0, 50.0, 20.0 ]
				}

			}
, 			{
				"box" : 				{
					"fontname" : "Andale Mono",
					"fontsize" : 10.0,
					"id" : "obj-9",
					"maxclass" : "newobj",
					"numinlets" : 2,
					"numoutlets" : 1,
					"outlettype" : [ "float" ],
					"patching_rect" : [ 420.0, 70.0, 45.0, 20.0 ],
					"text" : "f #1"
				}

			}
, 			{
				"box" : 				{
					"id" : "obj-4",
					"maxclass" : "button",
					"numinlets" : 1,
					"numoutlets" : 1,
					"outlettype" : [ "bang" ],
					"parameter_enable" : 0,
					"patching_rect" : [ 420.0, 40.0, 20.0, 20.0 ]
				}

			}
, 			{
				"box" : 				{
					"fontname" : "Andale Mono",
					"fontsize" : 10.0,
					"id" : "obj-2",
					"maxclass" : "newobj",
					"numinlets" : 1,
					"numoutlets" : 0,
					"patching_rect" : [ 472.5, 444.0, 47.0, 20.0 ],
					"saved_object_attributes" : 					{
						"attr_comment" : ""
					}
,
					"text" : "out~ 1"
				}

			}
, 			{
				"box" : 				{
					"fontname" : "Andale Mono",
					"fontsize" : 10.0,
					"id" : "obj-1",
					"maxclass" : "newobj",
					"numinlets" : 1,
					"numoutlets" : 1,
					"outlettype" : [ "signal" ],
					"patching_rect" : [ 150.0, 90.0, 41.0, 20.0 ],
					"saved_object_attributes" : 					{
						"attr_comment" : ""
					}
,
					"text" : "in~ 1"
				}

			}
, 			{
				"box" : 				{
					"fontname" : "Andale Mono",
					"fontsize" : 10.0,
					"id" : "obj-14",
					"maxclass" : "newobj",
					"numinlets" : 2,
					"numoutlets" : 1,
					"outlettype" : [ "signal" ],
					"patching_rect" : [ 150.0, 302.0, 149.0, 20.0 ],
					"text" : "pfft~ convo.sjf~ #1 2"
				}

			}
, 			{
				"box" : 				{
					"fontname" : "Andale Mono",
					"fontsize" : 10.0,
					"id" : "obj-31",
					"maxclass" : "message",
					"numinlets" : 2,
					"numoutlets" : 1,
					"outlettype" : [ "" ],
					"patching_rect" : [ 402.0, 335.0, 95.0, 20.0 ],
					"text" : "maxsize $1, $1"
				}

			}
 ],
		"lines" : [ 			{
				"patchline" : 				{
					"destination" : [ "obj-14", 0 ],
					"source" : [ "obj-1", 0 ]
				}

			}
, 			{
				"patchline" : 				{
					"destination" : [ "obj-21", 1 ],
					"order" : 1,
					"source" : [ "obj-11", 0 ]
				}

			}
, 			{
				"patchline" : 				{
					"destination" : [ "obj-23", 1 ],
					"order" : 0,
					"source" : [ "obj-11", 0 ]
				}

			}
, 			{
				"patchline" : 				{
					"destination" : [ "obj-10", 0 ],
					"source" : [ "obj-12", 0 ]
				}

			}
, 			{
				"patchline" : 				{
					"destination" : [ "obj-30", 0 ],
					"source" : [ "obj-14", 0 ]
				}

			}
, 			{
				"patchline" : 				{
					"destination" : [ "obj-13", 0 ],
					"source" : [ "obj-15", 0 ]
				}

			}
, 			{
				"patchline" : 				{
					"destination" : [ "obj-23", 0 ],
					"source" : [ "obj-16", 0 ]
				}

			}
, 			{
				"patchline" : 				{
					"destination" : [ "obj-22", 0 ],
					"source" : [ "obj-17", 0 ]
				}

			}
, 			{
				"patchline" : 				{
					"destination" : [ "obj-16", 0 ],
					"order" : 0,
					"source" : [ "obj-18", 0 ]
				}

			}
, 			{
				"patchline" : 				{
					"destination" : [ "obj-21", 0 ],
					"order" : 1,
					"source" : [ "obj-18", 0 ]
				}

			}
, 			{
				"patchline" : 				{
					"destination" : [ "obj-26", 0 ],
					"source" : [ "obj-19", 0 ]
				}

			}
, 			{
				"patchline" : 				{
					"destination" : [ "obj-18", 0 ],
					"source" : [ "obj-20", 0 ]
				}

			}
, 			{
				"patchline" : 				{
					"destination" : [ "obj-6", 0 ],
					"source" : [ "obj-21", 0 ]
				}

			}
, 			{
				"patchline" : 				{
					"destination" : [ "obj-24", 0 ],
					"order" : 1,
					"source" : [ "obj-22", 0 ]
				}

			}
, 			{
				"patchline" : 				{
					"destination" : [ "obj-27", 0 ],
					"order" : 2,
					"source" : [ "obj-22", 0 ]
				}

			}
, 			{
				"patchline" : 				{
					"destination" : [ "obj-5", 0 ],
					"order" : 0,
					"source" : [ "obj-22", 0 ]
				}

			}
, 			{
				"patchline" : 				{
					"destination" : [ "obj-19", 0 ],
					"source" : [ "obj-23", 0 ]
				}

			}
, 			{
				"patchline" : 				{
					"destination" : [ "obj-14", 1 ],
					"source" : [ "obj-24", 0 ]
				}

			}
, 			{
				"patchline" : 				{
					"destination" : [ "obj-27", 0 ],
					"source" : [ "obj-25", 0 ]
				}

			}
, 			{
				"patchline" : 				{
					"destination" : [ "obj-32", 0 ],
					"source" : [ "obj-26", 0 ]
				}

			}
, 			{
				"patchline" : 				{
					"destination" : [ "obj-4", 0 ],
					"source" : [ "obj-3", 0 ]
				}

			}
, 			{
				"patchline" : 				{
					"destination" : [ "obj-2", 0 ],
					"order" : 1,
					"source" : [ "obj-30", 0 ]
				}

			}
, 			{
				"patchline" : 				{
					"destination" : [ "obj-28", 0 ],
					"order" : 0,
					"source" : [ "obj-30", 0 ]
				}

			}
, 			{
				"patchline" : 				{
					"destination" : [ "obj-30", 0 ],
					"source" : [ "obj-31", 0 ]
				}

			}
, 			{
				"patchline" : 				{
					"destination" : [ "obj-30", 1 ],
					"source" : [ "obj-32", 0 ]
				}

			}
, 			{
				"patchline" : 				{
					"destination" : [ "obj-31", 0 ],
					"source" : [ "obj-32", 1 ]
				}

			}
, 			{
				"patchline" : 				{
					"destination" : [ "obj-12", 0 ],
					"order" : 1,
					"source" : [ "obj-4", 0 ]
				}

			}
, 			{
				"patchline" : 				{
					"destination" : [ "obj-15", 0 ],
					"order" : 0,
					"source" : [ "obj-4", 0 ]
				}

			}
, 			{
				"patchline" : 				{
					"destination" : [ "obj-20", 0 ],
					"order" : 4,
					"source" : [ "obj-4", 0 ]
				}

			}
, 			{
				"patchline" : 				{
					"destination" : [ "obj-8", 0 ],
					"order" : 2,
					"source" : [ "obj-4", 0 ]
				}

			}
, 			{
				"patchline" : 				{
					"destination" : [ "obj-9", 0 ],
					"order" : 3,
					"source" : [ "obj-4", 0 ]
				}

			}
, 			{
				"patchline" : 				{
					"destination" : [ "obj-22", 1 ],
					"source" : [ "obj-6", 0 ]
				}

			}
, 			{
				"patchline" : 				{
					"destination" : [ "obj-7", 0 ],
					"source" : [ "obj-8", 0 ]
				}

			}
, 			{
				"patchline" : 				{
					"destination" : [ "obj-11", 0 ],
					"source" : [ "obj-9", 0 ]
				}

			}
 ]
	}

}
