{
	"patcher" : 	{
		"fileversion" : 1,
		"appversion" : 		{
			"major" : 6,
			"minor" : 1,
			"revision" : 6,
			"architecture" : "x86"
		}
,
		"rect" : [ 25.0, 69.0, 640.0, 480.0 ],
		"bglocked" : 0,
		"openinpresentation" : 0,
		"default_fontsize" : 10.0,
		"default_fontface" : 0,
		"default_fontname" : "Andale Mono",
		"gridonopen" : 0,
		"gridsize" : [ 10.0, 10.0 ],
		"gridsnaponopen" : 0,
		"statusbarvisible" : 2,
		"toolbarvisible" : 1,
		"boxanimatetime" : 200,
		"imprint" : 0,
		"enablehscroll" : 1,
		"enablevscroll" : 1,
		"devicewidth" : 0.0,
		"description" : "",
		"digest" : "",
		"tags" : "",
		"boxes" : [ 			{
				"box" : 				{
					"fontname" : "Andale Mono",
					"fontsize" : 10.0,
					"id" : "obj-33",
					"linecount" : 3,
					"maxclass" : "newobj",
					"numinlets" : 1,
					"numoutlets" : 1,
					"outlettype" : [ "" ],
					"patcher" : 					{
						"fileversion" : 1,
						"appversion" : 						{
							"major" : 6,
							"minor" : 1,
							"revision" : 6,
							"architecture" : "x86"
						}
,
						"rect" : [ 0.0, 66.0, 640.0, 480.0 ],
						"bglocked" : 0,
						"openinpresentation" : 0,
						"default_fontsize" : 10.0,
						"default_fontface" : 0,
						"default_fontname" : "Andale Mono",
						"gridonopen" : 0,
						"gridsize" : [ 10.0, 10.0 ],
						"gridsnaponopen" : 0,
						"statusbarvisible" : 2,
						"toolbarvisible" : 1,
						"boxanimatetime" : 200,
						"imprint" : 0,
						"enablehscroll" : 1,
						"enablevscroll" : 1,
						"devicewidth" : 0.0,
						"description" : "",
						"digest" : "",
						"tags" : "",
						"boxes" : [ 							{
								"box" : 								{
									"fontname" : "Andale Mono",
									"fontsize" : 10.0,
									"id" : "obj-9",
									"maxclass" : "newobj",
									"numinlets" : 2,
									"numoutlets" : 1,
									"outlettype" : [ "" ],
									"patching_rect" : [ 400.0, 380.0, 77.0, 18.0 ],
									"text" : "speedlim 10"
								}

							}
, 							{
								"box" : 								{
									"fontname" : "Andale Mono",
									"fontsize" : 10.0,
									"id" : "obj-2",
									"maxclass" : "message",
									"numinlets" : 2,
									"numoutlets" : 1,
									"outlettype" : [ "" ],
									"patching_rect" : [ 70.0, 300.0, 107.0, 16.0 ],
									"text" : "C sus"
								}

							}
, 							{
								"box" : 								{
									"fontname" : "Andale Mono",
									"fontsize" : 10.0,
									"id" : "obj-3",
									"maxclass" : "message",
									"numinlets" : 2,
									"numoutlets" : 1,
									"outlettype" : [ "" ],
									"patching_rect" : [ 420.0, 120.0, 47.0, 16.0 ],
									"text" : "reload"
								}

							}
, 							{
								"box" : 								{
									"fontname" : "Andale Mono",
									"fontsize" : 10.0,
									"id" : "obj-24",
									"maxclass" : "newobj",
									"numinlets" : 1,
									"numoutlets" : 1,
									"outlettype" : [ "" ],
									"patching_rect" : [ 70.0, 330.0, 83.0, 18.0 ],
									"text" : "prepend name"
								}

							}
, 							{
								"box" : 								{
									"id" : "obj-23",
									"maxclass" : "button",
									"numinlets" : 1,
									"numoutlets" : 1,
									"outlettype" : [ "bang" ],
									"patching_rect" : [ 200.0, 270.0, 20.0, 20.0 ]
								}

							}
, 							{
								"box" : 								{
									"fontname" : "Andale Mono",
									"fontsize" : 10.0,
									"id" : "obj-18",
									"maxclass" : "newobj",
									"numinlets" : 1,
									"numoutlets" : 3,
									"outlettype" : [ "bang", "", "" ],
									"patching_rect" : [ 70.0, 70.0, 53.0, 18.0 ],
									"text" : "t b l l"
								}

							}
, 							{
								"box" : 								{
									"fontname" : "Andale Mono",
									"fontsize" : 10.0,
									"id" : "obj-10",
									"maxclass" : "newobj",
									"numinlets" : 1,
									"numoutlets" : 1,
									"outlettype" : [ "" ],
									"patching_rect" : [ 420.0, 250.0, 77.0, 18.0 ],
									"text" : "prepend set"
								}

							}
, 							{
								"box" : 								{
									"fontname" : "Andale Mono",
									"fontsize" : 10.0,
									"id" : "obj-84",
									"maxclass" : "message",
									"numinlets" : 2,
									"numoutlets" : 1,
									"outlettype" : [ "" ],
									"patching_rect" : [ 90.0, 270.0, 107.0, 16.0 ],
									"text" : "append sus, bang"
								}

							}
, 							{
								"box" : 								{
									"fontname" : "Andale Mono",
									"fontsize" : 10.0,
									"id" : "obj-82",
									"maxclass" : "newobj",
									"numinlets" : 2,
									"numoutlets" : 2,
									"outlettype" : [ "bang", "" ],
									"patching_rect" : [ 90.0, 240.0, 80.0, 18.0 ],
									"text" : "sel 2"
								}

							}
, 							{
								"box" : 								{
									"fontname" : "Andale Mono",
									"fontsize" : 10.0,
									"id" : "obj-79",
									"maxclass" : "newobj",
									"numinlets" : 2,
									"numoutlets" : 1,
									"outlettype" : [ "int" ],
									"patcher" : 									{
										"fileversion" : 1,
										"appversion" : 										{
											"major" : 6,
											"minor" : 1,
											"revision" : 6,
											"architecture" : "x86"
										}
,
										"rect" : [ 286.0, 44.0, 640.0, 480.0 ],
										"bglocked" : 0,
										"openinpresentation" : 0,
										"default_fontsize" : 12.0,
										"default_fontface" : 0,
										"default_fontname" : "Andale Mono",
										"gridonopen" : 0,
										"gridsize" : [ 10.0, 10.0 ],
										"gridsnaponopen" : 0,
										"statusbarvisible" : 2,
										"toolbarvisible" : 1,
										"boxanimatetime" : 200,
										"imprint" : 0,
										"enablehscroll" : 1,
										"enablevscroll" : 1,
										"devicewidth" : 0.0,
										"description" : "",
										"digest" : "",
										"tags" : "",
										"boxes" : [ 											{
												"box" : 												{
													"fontname" : "Andale Mono",
													"fontsize" : 12.0,
													"id" : "obj-31",
													"maxclass" : "newobj",
													"numinlets" : 2,
													"numoutlets" : 1,
													"outlettype" : [ "int" ],
													"patching_rect" : [ 210.0, 390.0, 47.0, 20.0 ],
													"text" : "!- 12"
												}

											}
, 											{
												"box" : 												{
													"fontname" : "Andale Mono",
													"fontsize" : 12.0,
													"id" : "obj-30",
													"maxclass" : "newobj",
													"numinlets" : 1,
													"numoutlets" : 2,
													"outlettype" : [ "", "" ],
													"patching_rect" : [ 90.0, 360.0, 255.0, 20.0 ],
													"text" : "if $i1 <= 6 then $i1 else out2 $i1"
												}

											}
, 											{
												"box" : 												{
													"fontname" : "Andale Mono",
													"fontsize" : 12.0,
													"id" : "obj-27",
													"maxclass" : "newobj",
													"numinlets" : 1,
													"numoutlets" : 1,
													"outlettype" : [ "" ],
													"patching_rect" : [ 250.0, 150.0, 75.0, 20.0 ],
													"text" : "prepend 0"
												}

											}
, 											{
												"box" : 												{
													"fontname" : "Andale Mono",
													"fontsize" : 12.0,
													"id" : "obj-12",
													"maxclass" : "newobj",
													"numinlets" : 1,
													"numoutlets" : 1,
													"outlettype" : [ "int" ],
													"patching_rect" : [ 90.0, 300.0, 32.0, 20.0 ],
													"text" : "abs"
												}

											}
, 											{
												"box" : 												{
													"fontname" : "Andale Mono",
													"fontsize" : 12.0,
													"id" : "obj-11",
													"maxclass" : "newobj",
													"numinlets" : 2,
													"numoutlets" : 1,
													"outlettype" : [ "int" ],
													"patching_rect" : [ 90.0, 270.0, 150.0, 20.0 ],
													"text" : "-"
												}

											}
, 											{
												"box" : 												{
													"fontname" : "Andale Mono",
													"fontsize" : 12.0,
													"id" : "obj-3",
													"maxclass" : "newobj",
													"numinlets" : 2,
													"numoutlets" : 1,
													"outlettype" : [ "int" ],
													"patching_rect" : [ 10.0, 430.0, 32.5, 20.0 ],
													"text" : "int"
												}

											}
, 											{
												"box" : 												{
													"fontname" : "Andale Mono",
													"fontsize" : 12.0,
													"id" : "obj-66",
													"maxclass" : "newobj",
													"numinlets" : 1,
													"numoutlets" : 1,
													"outlettype" : [ "" ],
													"patching_rect" : [ 90.0, 420.0, 227.0, 20.0 ],
													"text" : "if $i1 == 3 || $i1 == 4 then 1"
												}

											}
, 											{
												"box" : 												{
													"fontname" : "Andale Mono",
													"fontsize" : 12.0,
													"id" : "obj-65",
													"maxclass" : "newobj",
													"numinlets" : 2,
													"numoutlets" : 1,
													"outlettype" : [ "int" ],
													"patching_rect" : [ 90.0, 330.0, 39.0, 20.0 ],
													"text" : "% 12"
												}

											}
, 											{
												"box" : 												{
													"fontname" : "Andale Mono",
													"fontsize" : 12.0,
													"id" : "obj-57",
													"linecount" : 2,
													"maxclass" : "newobj",
													"numinlets" : 3,
													"numoutlets" : 1,
													"outlettype" : [ "" ],
													"patching_rect" : [ 90.0, 190.0, 110.0, 33.0 ],
													"text" : "if $i2 != $i3 then $i2"
												}

											}
, 											{
												"box" : 												{
													"fontname" : "Andale Mono",
													"fontsize" : 12.0,
													"id" : "obj-56",
													"maxclass" : "newobj",
													"numinlets" : 1,
													"numoutlets" : 1,
													"outlettype" : [ "list" ],
													"patching_rect" : [ 90.0, 160.0, 83.0, 20.0 ],
													"text" : "listfunnel"
												}

											}
, 											{
												"box" : 												{
													"fontname" : "Andale Mono",
													"fontsize" : 12.0,
													"id" : "obj-53",
													"maxclass" : "newobj",
													"numinlets" : 1,
													"numoutlets" : 4,
													"outlettype" : [ "bang", "", "", "int" ],
													"patching_rect" : [ 90.0, 70.0, 100.0, 20.0 ],
													"text" : "t b l l 2"
												}

											}
, 											{
												"box" : 												{
													"comment" : "chord",
													"id" : "obj-74",
													"maxclass" : "inlet",
													"numinlets" : 0,
													"numoutlets" : 1,
													"outlettype" : [ "" ],
													"patching_rect" : [ 90.0, 20.0, 25.0, 25.0 ]
												}

											}
, 											{
												"box" : 												{
													"comment" : "root",
													"id" : "obj-75",
													"maxclass" : "inlet",
													"numinlets" : 0,
													"numoutlets" : 1,
													"outlettype" : [ "int" ],
													"patching_rect" : [ 430.0, 40.0, 25.0, 25.0 ]
												}

											}
, 											{
												"box" : 												{
													"comment" : "",
													"id" : "obj-77",
													"maxclass" : "outlet",
													"numinlets" : 1,
													"numoutlets" : 0,
													"patching_rect" : [ 10.0, 460.0, 25.0, 25.0 ]
												}

											}
 ],
										"lines" : [ 											{
												"patchline" : 												{
													"destination" : [ "obj-12", 0 ],
													"disabled" : 0,
													"hidden" : 0,
													"source" : [ "obj-11", 0 ]
												}

											}
, 											{
												"patchline" : 												{
													"destination" : [ "obj-65", 0 ],
													"disabled" : 0,
													"hidden" : 0,
													"source" : [ "obj-12", 0 ]
												}

											}
, 											{
												"patchline" : 												{
													"destination" : [ "obj-57", 0 ],
													"disabled" : 0,
													"hidden" : 0,
													"source" : [ "obj-27", 0 ]
												}

											}
, 											{
												"patchline" : 												{
													"destination" : [ "obj-77", 0 ],
													"disabled" : 0,
													"hidden" : 0,
													"source" : [ "obj-3", 0 ]
												}

											}
, 											{
												"patchline" : 												{
													"destination" : [ "obj-31", 0 ],
													"disabled" : 0,
													"hidden" : 0,
													"source" : [ "obj-30", 1 ]
												}

											}
, 											{
												"patchline" : 												{
													"destination" : [ "obj-66", 0 ],
													"disabled" : 0,
													"hidden" : 0,
													"source" : [ "obj-30", 0 ]
												}

											}
, 											{
												"patchline" : 												{
													"destination" : [ "obj-66", 0 ],
													"disabled" : 0,
													"hidden" : 0,
													"source" : [ "obj-31", 0 ]
												}

											}
, 											{
												"patchline" : 												{
													"destination" : [ "obj-3", 1 ],
													"disabled" : 0,
													"hidden" : 0,
													"midpoints" : [ 180.5, 146.5, 33.0, 146.5 ],
													"source" : [ "obj-53", 3 ]
												}

											}
, 											{
												"patchline" : 												{
													"destination" : [ "obj-3", 0 ],
													"disabled" : 0,
													"hidden" : 0,
													"midpoints" : [ 99.5, 99.5, 19.5, 99.5 ],
													"source" : [ "obj-53", 0 ]
												}

											}
, 											{
												"patchline" : 												{
													"destination" : [ "obj-56", 0 ],
													"disabled" : 0,
													"hidden" : 0,
													"source" : [ "obj-53", 1 ]
												}

											}
, 											{
												"patchline" : 												{
													"destination" : [ "obj-57", 0 ],
													"disabled" : 0,
													"hidden" : 0,
													"source" : [ "obj-56", 0 ]
												}

											}
, 											{
												"patchline" : 												{
													"destination" : [ "obj-11", 0 ],
													"disabled" : 0,
													"hidden" : 0,
													"source" : [ "obj-57", 0 ]
												}

											}
, 											{
												"patchline" : 												{
													"destination" : [ "obj-30", 0 ],
													"disabled" : 0,
													"hidden" : 0,
													"source" : [ "obj-65", 0 ]
												}

											}
, 											{
												"patchline" : 												{
													"destination" : [ "obj-3", 1 ],
													"disabled" : 0,
													"hidden" : 0,
													"source" : [ "obj-66", 0 ]
												}

											}
, 											{
												"patchline" : 												{
													"destination" : [ "obj-53", 0 ],
													"disabled" : 0,
													"hidden" : 0,
													"source" : [ "obj-74", 0 ]
												}

											}
, 											{
												"patchline" : 												{
													"destination" : [ "obj-11", 1 ],
													"disabled" : 0,
													"hidden" : 0,
													"source" : [ "obj-75", 0 ]
												}

											}
, 											{
												"patchline" : 												{
													"destination" : [ "obj-57", 2 ],
													"disabled" : 0,
													"hidden" : 0,
													"source" : [ "obj-75", 0 ]
												}

											}
 ]
									}
,
									"patching_rect" : [ 90.0, 210.0, 173.0, 18.0 ],
									"saved_object_attributes" : 									{
										"default_fontface" : 0,
										"default_fontname" : "Andale Mono",
										"default_fontsize" : 12.0,
										"description" : "",
										"digest" : "",
										"fontface" : 0,
										"fontname" : "Andale Mono",
										"fontsize" : 12.0,
										"globalpatchername" : "",
										"tags" : ""
									}
,
									"text" : "p determineIfChordHasAThird"
								}

							}
, 							{
								"box" : 								{
									"fontname" : "Andale Mono",
									"fontsize" : 10.0,
									"id" : "obj-101",
									"maxclass" : "newobj",
									"numinlets" : 2,
									"numoutlets" : 2,
									"outlettype" : [ "int", "" ],
									"patcher" : 									{
										"fileversion" : 1,
										"appversion" : 										{
											"major" : 6,
											"minor" : 1,
											"revision" : 6,
											"architecture" : "x86"
										}
,
										"rect" : [ 585.0, 44.0, 640.0, 480.0 ],
										"bglocked" : 0,
										"openinpresentation" : 0,
										"default_fontsize" : 10.0,
										"default_fontface" : 0,
										"default_fontname" : "Andale Mono",
										"gridonopen" : 0,
										"gridsize" : [ 10.0, 10.0 ],
										"gridsnaponopen" : 0,
										"statusbarvisible" : 2,
										"toolbarvisible" : 1,
										"boxanimatetime" : 200,
										"imprint" : 0,
										"enablehscroll" : 1,
										"enablevscroll" : 1,
										"devicewidth" : 0.0,
										"description" : "",
										"digest" : "",
										"tags" : "",
										"boxes" : [ 											{
												"box" : 												{
													"fontname" : "Andale Mono",
													"fontsize" : 10.0,
													"id" : "obj-21",
													"maxclass" : "newobj",
													"numinlets" : 2,
													"numoutlets" : 2,
													"outlettype" : [ "", "" ],
													"patching_rect" : [ 30.0, 85.820435, 102.0, 18.0 ],
													"text" : "zl 1024 slice 1"
												}

											}
, 											{
												"box" : 												{
													"fontname" : "Andale Mono",
													"fontsize" : 10.0,
													"id" : "obj-20",
													"maxclass" : "message",
													"numinlets" : 2,
													"numoutlets" : 1,
													"outlettype" : [ "" ],
													"patching_rect" : [ 160.0, 350.0, 36.0, 16.0 ],
													"text" : "set"
												}

											}
, 											{
												"box" : 												{
													"fontname" : "Andale Mono",
													"fontsize" : 10.0,
													"id" : "obj-17",
													"maxclass" : "newobj",
													"numinlets" : 1,
													"numoutlets" : 3,
													"outlettype" : [ "int", "int", "bang" ],
													"patching_rect" : [ 30.0, 210.0, 150.0, 18.0 ],
													"text" : "t i i b"
												}

											}
, 											{
												"box" : 												{
													"fontname" : "Andale Mono",
													"fontsize" : 10.0,
													"id" : "obj-10",
													"maxclass" : "newobj",
													"numinlets" : 1,
													"numoutlets" : 1,
													"outlettype" : [ "" ],
													"patching_rect" : [ 200.0, 260.0, 89.0, 18.0 ],
													"text" : "prepend scale"
												}

											}
, 											{
												"box" : 												{
													"fontname" : "Andale Mono",
													"fontsize" : 10.0,
													"id" : "obj-8",
													"maxclass" : "newobj",
													"numinlets" : 1,
													"numoutlets" : 3,
													"outlettype" : [ "bang", "int", "int" ],
													"patching_rect" : [ 280.0, 40.0, 53.0, 18.0 ],
													"text" : "t b i 0"
												}

											}
, 											{
												"box" : 												{
													"comment" : "",
													"id" : "obj-7",
													"maxclass" : "outlet",
													"numinlets" : 1,
													"numoutlets" : 0,
													"patching_rect" : [ 30.0, 320.0, 25.0, 25.0 ]
												}

											}
, 											{
												"box" : 												{
													"fontname" : "Andale Mono",
													"fontsize" : 10.0,
													"id" : "obj-1",
													"maxclass" : "newobj",
													"numinlets" : 1,
													"numoutlets" : 1,
													"outlettype" : [ "" ],
													"patching_rect" : [ 50.0, 240.0, 83.0, 18.0 ],
													"text" : "prepend root"
												}

											}
, 											{
												"box" : 												{
													"fontname" : "Andale Mono",
													"fontsize" : 10.0,
													"id" : "obj-5",
													"maxclass" : "newobj",
													"numinlets" : 1,
													"numoutlets" : 1,
													"outlettype" : [ "" ],
													"patching_rect" : [ 310.0, 140.0, 72.0, 18.0 ],
													"text" : "append sus"
												}

											}
, 											{
												"box" : 												{
													"fontname" : "Andale Mono",
													"fontsize" : 10.0,
													"id" : "obj-4",
													"maxclass" : "newobj",
													"numinlets" : 2,
													"numoutlets" : 2,
													"outlettype" : [ "", "" ],
													"patching_rect" : [ 250.0, 110.0, 60.0, 18.0 ],
													"text" : "gate 2 1"
												}

											}
, 											{
												"box" : 												{
													"comment" : "",
													"id" : "obj-3",
													"maxclass" : "inlet",
													"numinlets" : 0,
													"numoutlets" : 1,
													"outlettype" : [ "int" ],
													"patching_rect" : [ 280.0, 0.0, 25.0, 25.0 ]
												}

											}
, 											{
												"box" : 												{
													"fontname" : "Andale Mono",
													"fontsize" : 10.0,
													"id" : "obj-2",
													"linecount" : 3,
													"maxclass" : "message",
													"numinlets" : 2,
													"numoutlets" : 1,
													"outlettype" : [ "" ],
													"patching_rect" : [ 310.0, 90.0, 80.0, 16.0 ],
													"text" : "dom7s11 add9 b13 add13"
												}

											}
, 											{
												"box" : 												{
													"fontname" : "Andale Mono",
													"fontsize" : 10.0,
													"frgb" : 0.0,
													"id" : "obj-91",
													"maxclass" : "comment",
													"numinlets" : 1,
													"numoutlets" : 0,
													"patching_rect" : [ 490.0, 200.0, 19.0, 18.0 ],
													"text" : "7",
													"textcolor" : [ 1.0, 0.180877, 0.117489, 1.0 ]
												}

											}
, 											{
												"box" : 												{
													"fontname" : "Andale Mono",
													"fontsize" : 10.0,
													"frgb" : 0.0,
													"id" : "obj-90",
													"linecount" : 2,
													"maxclass" : "comment",
													"numinlets" : 1,
													"numoutlets" : 0,
													"patching_rect" : [ 460.0, 200.0, 19.0, 29.0 ],
													"text" : "b7",
													"textcolor" : [ 1.0, 0.180877, 0.117489, 1.0 ]
												}

											}
, 											{
												"box" : 												{
													"fontname" : "Andale Mono",
													"fontsize" : 10.0,
													"frgb" : 0.0,
													"id" : "obj-89",
													"maxclass" : "comment",
													"numinlets" : 1,
													"numoutlets" : 0,
													"patching_rect" : [ 430.0, 200.0, 19.0, 18.0 ],
													"text" : "6",
													"textcolor" : [ 1.0, 0.180877, 0.117489, 1.0 ]
												}

											}
, 											{
												"box" : 												{
													"fontname" : "Andale Mono",
													"fontsize" : 10.0,
													"frgb" : 0.0,
													"id" : "obj-88",
													"linecount" : 3,
													"maxclass" : "comment",
													"numinlets" : 1,
													"numoutlets" : 0,
													"patching_rect" : [ 410.0, 200.0, 19.0, 40.0 ],
													"text" : "b13",
													"textcolor" : [ 1.0, 0.180877, 0.117489, 1.0 ]
												}

											}
, 											{
												"box" : 												{
													"fontname" : "Andale Mono",
													"fontsize" : 10.0,
													"frgb" : 0.0,
													"id" : "obj-87",
													"maxclass" : "comment",
													"numinlets" : 1,
													"numoutlets" : 0,
													"patching_rect" : [ 380.0, 200.0, 19.0, 18.0 ],
													"text" : "5",
													"textcolor" : [ 1.0, 0.180877, 0.117489, 1.0 ]
												}

											}
, 											{
												"box" : 												{
													"fontname" : "Andale Mono",
													"fontsize" : 10.0,
													"frgb" : 0.0,
													"id" : "obj-86",
													"linecount" : 3,
													"maxclass" : "comment",
													"numinlets" : 1,
													"numoutlets" : 0,
													"patching_rect" : [ 360.0, 200.0, 19.0, 40.0 ],
													"text" : "#11",
													"textcolor" : [ 1.0, 0.180877, 0.117489, 1.0 ]
												}

											}
, 											{
												"box" : 												{
													"fontname" : "Andale Mono",
													"fontsize" : 10.0,
													"frgb" : 0.0,
													"id" : "obj-85",
													"maxclass" : "comment",
													"numinlets" : 1,
													"numoutlets" : 0,
													"patching_rect" : [ 330.0, 200.0, 19.0, 18.0 ],
													"text" : "4",
													"textcolor" : [ 1.0, 0.180877, 0.117489, 1.0 ]
												}

											}
, 											{
												"box" : 												{
													"fontname" : "Andale Mono",
													"fontsize" : 10.0,
													"frgb" : 0.0,
													"id" : "obj-84",
													"maxclass" : "comment",
													"numinlets" : 1,
													"numoutlets" : 0,
													"patching_rect" : [ 300.0, 200.0, 19.0, 18.0 ],
													"text" : "3",
													"textcolor" : [ 1.0, 0.180877, 0.117489, 1.0 ]
												}

											}
, 											{
												"box" : 												{
													"fontname" : "Andale Mono",
													"fontsize" : 10.0,
													"frgb" : 0.0,
													"id" : "obj-83",
													"linecount" : 2,
													"maxclass" : "comment",
													"numinlets" : 1,
													"numoutlets" : 0,
													"patching_rect" : [ 280.0, 200.0, 19.0, 29.0 ],
													"text" : "m3",
													"textcolor" : [ 1.0, 0.180877, 0.117489, 1.0 ]
												}

											}
, 											{
												"box" : 												{
													"fontname" : "Andale Mono",
													"fontsize" : 10.0,
													"frgb" : 0.0,
													"id" : "obj-82",
													"maxclass" : "comment",
													"numinlets" : 1,
													"numoutlets" : 0,
													"patching_rect" : [ 260.0, 200.0, 19.0, 18.0 ],
													"text" : "2",
													"textcolor" : [ 1.0, 0.180877, 0.117489, 1.0 ]
												}

											}
, 											{
												"box" : 												{
													"fontname" : "Andale Mono",
													"fontsize" : 10.0,
													"frgb" : 0.0,
													"id" : "obj-81",
													"linecount" : 2,
													"maxclass" : "comment",
													"numinlets" : 1,
													"numoutlets" : 0,
													"patching_rect" : [ 230.0, 200.0, 19.0, 29.0 ],
													"text" : "b2",
													"textcolor" : [ 1.0, 0.180877, 0.117489, 1.0 ]
												}

											}
, 											{
												"box" : 												{
													"fontname" : "Andale Mono",
													"fontsize" : 10.0,
													"frgb" : 0.0,
													"id" : "obj-80",
													"maxclass" : "comment",
													"numinlets" : 1,
													"numoutlets" : 0,
													"patching_rect" : [ 200.0, 200.0, 19.0, 18.0 ],
													"text" : "R",
													"textcolor" : [ 1.0, 0.180877, 0.117489, 1.0 ]
												}

											}
, 											{
												"box" : 												{
													"fontname" : "Andale Mono",
													"fontsize" : 10.0,
													"id" : "obj-75",
													"maxclass" : "newobj",
													"numinlets" : 1,
													"numoutlets" : 1,
													"outlettype" : [ "" ],
													"patcher" : 													{
														"fileversion" : 1,
														"appversion" : 														{
															"major" : 6,
															"minor" : 1,
															"revision" : 6,
															"architecture" : "x86"
														}
,
														"rect" : [ 0.0, 44.0, 1280.0, 706.0 ],
														"bglocked" : 0,
														"openinpresentation" : 0,
														"default_fontsize" : 12.0,
														"default_fontface" : 0,
														"default_fontname" : "Arial",
														"gridonopen" : 0,
														"gridsize" : [ 10.0, 10.0 ],
														"gridsnaponopen" : 0,
														"statusbarvisible" : 2,
														"toolbarvisible" : 1,
														"boxanimatetime" : 200,
														"imprint" : 0,
														"enablehscroll" : 1,
														"enablevscroll" : 1,
														"devicewidth" : 0.0,
														"description" : "",
														"digest" : "",
														"tags" : "",
														"boxes" : [ 															{
																"box" : 																{
																	"fontname" : "Arial",
																	"fontsize" : 12.0,
																	"id" : "obj-16",
																	"maxclass" : "message",
																	"numinlets" : 2,
																	"numoutlets" : 1,
																	"outlettype" : [ "" ],
																	"patching_rect" : [ 700.0, 420.0, 160.0, 18.0 ],
																	"text" : "select 3 1"
																}

															}
, 															{
																"box" : 																{
																	"fontname" : "Arial",
																	"fontsize" : 12.0,
																	"id" : "obj-11",
																	"linecount" : 2,
																	"maxclass" : "message",
																	"numinlets" : 2,
																	"numoutlets" : 1,
																	"outlettype" : [ "" ],
																	"patching_rect" : [ 1020.0, 430.0, 53.0, 31.0 ],
																	"text" : "select 8 0 9 1"
																}

															}
, 															{
																"box" : 																{
																	"fontname" : "Arial",
																	"fontsize" : 12.0,
																	"id" : "obj-10",
																	"linecount" : 2,
																	"maxclass" : "message",
																	"numinlets" : 2,
																	"numoutlets" : 1,
																	"outlettype" : [ "" ],
																	"patching_rect" : [ 1330.0, 480.0, 53.0, 31.0 ],
																	"text" : "select 6 0 7 1"
																}

															}
, 															{
																"box" : 																{
																	"id" : "obj-19",
																	"maxclass" : "multislider",
																	"numinlets" : 1,
																	"numoutlets" : 2,
																	"outlettype" : [ "", "" ],
																	"parameter_enable" : 0,
																	"patching_rect" : [ 1030.0, 510.0, 310.0, 50.0 ],
																	"setminmax" : [ 0.0, 1.0 ],
																	"setstyle" : 1,
																	"settype" : 0,
																	"size" : 12,
																	"spacing" : 2
																}

															}
, 															{
																"box" : 																{
																	"fontname" : "Arial",
																	"fontsize" : 12.0,
																	"id" : "obj-8",
																	"linecount" : 3,
																	"maxclass" : "message",
																	"numinlets" : 2,
																	"numoutlets" : 1,
																	"outlettype" : [ "" ],
																	"patching_rect" : [ 1600.0, 310.0, 50.0, 45.0 ],
																	"text" : "1 0 1 0 1 1 0 1 0 1 1 0"
																}

															}
, 															{
																"box" : 																{
																	"fontname" : "Arial",
																	"fontsize" : 12.0,
																	"id" : "obj-4",
																	"linecount" : 2,
																	"maxclass" : "message",
																	"numinlets" : 2,
																	"numoutlets" : 1,
																	"outlettype" : [ "" ],
																	"patching_rect" : [ 1230.0, 130.0, 150.0, 18.0 ],
																	"text" : "dom7s11 add9 b13 add13 sus"
																}

															}
, 															{
																"box" : 																{
																	"fontname" : "Arial",
																	"fontsize" : 12.0,
																	"id" : "obj-33",
																	"maxclass" : "newobj",
																	"numinlets" : 1,
																	"numoutlets" : 1,
																	"outlettype" : [ "" ],
																	"patcher" : 																	{
																		"fileversion" : 1,
																		"appversion" : 																		{
																			"major" : 6,
																			"minor" : 1,
																			"revision" : 6,
																			"architecture" : "x86"
																		}
,
																		"rect" : [ 25.0, 69.0, 640.0, 480.0 ],
																		"bglocked" : 0,
																		"openinpresentation" : 0,
																		"default_fontsize" : 10.0,
																		"default_fontface" : 0,
																		"default_fontname" : "Andale Mono",
																		"gridonopen" : 0,
																		"gridsize" : [ 10.0, 10.0 ],
																		"gridsnaponopen" : 0,
																		"statusbarvisible" : 2,
																		"toolbarvisible" : 1,
																		"boxanimatetime" : 200,
																		"imprint" : 0,
																		"enablehscroll" : 1,
																		"enablevscroll" : 1,
																		"devicewidth" : 0.0,
																		"description" : "",
																		"digest" : "",
																		"tags" : "",
																		"boxes" : [ 																			{
																				"box" : 																				{
																					"fontname" : "Andale Mono",
																					"fontsize" : 10.0,
																					"id" : "obj-18",
																					"maxclass" : "message",
																					"numinlets" : 2,
																					"numoutlets" : 1,
																					"outlettype" : [ "" ],
																					"patching_rect" : [ 120.0, 140.0, 71.0, 16.0 ],
																					"text" : "select 3 1"
																				}

																			}
, 																			{
																				"box" : 																				{
																					"fontname" : "Andale Mono",
																					"fontsize" : 10.0,
																					"id" : "obj-19",
																					"maxclass" : "newobj",
																					"numinlets" : 1,
																					"numoutlets" : 5,
																					"outlettype" : [ "", "", "", "", "" ],
																					"patching_rect" : [ 50.0, 100.0, 167.0, 18.0 ],
																					"text" : "regexp add9 @substitute %0"
																				}

																			}
, 																			{
																				"box" : 																				{
																					"fontname" : "Andale Mono",
																					"fontsize" : 10.0,
																					"id" : "obj-7",
																					"maxclass" : "message",
																					"numinlets" : 2,
																					"numoutlets" : 1,
																					"outlettype" : [ "" ],
																					"patching_rect" : [ 330.0, 140.0, 95.0, 16.0 ],
																					"text" : "select 4 1 3 0"
																				}

																			}
, 																			{
																				"box" : 																				{
																					"fontname" : "Andale Mono",
																					"fontsize" : 10.0,
																					"id" : "obj-8",
																					"maxclass" : "newobj",
																					"numinlets" : 1,
																					"numoutlets" : 5,
																					"outlettype" : [ "", "", "", "", "" ],
																					"patching_rect" : [ 260.0, 100.0, 155.0, 18.0 ],
																					"text" : "regexp s9 @substitute %0"
																				}

																			}
, 																			{
																				"box" : 																				{
																					"fontname" : "Andale Mono",
																					"fontsize" : 10.0,
																					"id" : "obj-70",
																					"maxclass" : "message",
																					"numinlets" : 2,
																					"numoutlets" : 1,
																					"outlettype" : [ "" ],
																					"patching_rect" : [ 490.0, 140.0, 95.0, 16.0 ],
																					"text" : "select 2 1 3 0"
																				}

																			}
, 																			{
																				"box" : 																				{
																					"fontname" : "Andale Mono",
																					"fontsize" : 10.0,
																					"id" : "obj-71",
																					"maxclass" : "newobj",
																					"numinlets" : 1,
																					"numoutlets" : 5,
																					"outlettype" : [ "", "", "", "", "" ],
																					"patching_rect" : [ 420.0, 100.0, 155.0, 18.0 ],
																					"text" : "regexp b9 @substitute %0"
																				}

																			}
, 																			{
																				"box" : 																				{
																					"comment" : "",
																					"id" : "obj-31",
																					"maxclass" : "inlet",
																					"numinlets" : 0,
																					"numoutlets" : 1,
																					"outlettype" : [ "" ],
																					"patching_rect" : [ 238.333344, 40.0, 25.0, 25.0 ]
																				}

																			}
, 																			{
																				"box" : 																				{
																					"comment" : "",
																					"id" : "obj-32",
																					"maxclass" : "outlet",
																					"numinlets" : 1,
																					"numoutlets" : 0,
																					"patching_rect" : [ 308.333344, 216.0, 25.0, 25.0 ]
																				}

																			}
 ],
																		"lines" : [ 																			{
																				"patchline" : 																				{
																					"destination" : [ "obj-32", 0 ],
																					"disabled" : 0,
																					"hidden" : 0,
																					"source" : [ "obj-18", 0 ]
																				}

																			}
, 																			{
																				"patchline" : 																				{
																					"destination" : [ "obj-18", 0 ],
																					"disabled" : 0,
																					"hidden" : 0,
																					"source" : [ "obj-19", 2 ]
																				}

																			}
, 																			{
																				"patchline" : 																				{
																					"destination" : [ "obj-19", 0 ],
																					"disabled" : 0,
																					"hidden" : 0,
																					"source" : [ "obj-31", 0 ]
																				}

																			}
, 																			{
																				"patchline" : 																				{
																					"destination" : [ "obj-71", 0 ],
																					"disabled" : 0,
																					"hidden" : 0,
																					"source" : [ "obj-31", 0 ]
																				}

																			}
, 																			{
																				"patchline" : 																				{
																					"destination" : [ "obj-8", 0 ],
																					"disabled" : 0,
																					"hidden" : 0,
																					"source" : [ "obj-31", 0 ]
																				}

																			}
, 																			{
																				"patchline" : 																				{
																					"destination" : [ "obj-32", 0 ],
																					"disabled" : 0,
																					"hidden" : 0,
																					"source" : [ "obj-7", 0 ]
																				}

																			}
, 																			{
																				"patchline" : 																				{
																					"destination" : [ "obj-32", 0 ],
																					"disabled" : 0,
																					"hidden" : 0,
																					"source" : [ "obj-70", 0 ]
																				}

																			}
, 																			{
																				"patchline" : 																				{
																					"destination" : [ "obj-70", 0 ],
																					"disabled" : 0,
																					"hidden" : 0,
																					"source" : [ "obj-71", 2 ]
																				}

																			}
, 																			{
																				"patchline" : 																				{
																					"destination" : [ "obj-7", 0 ],
																					"disabled" : 0,
																					"hidden" : 0,
																					"source" : [ "obj-8", 2 ]
																				}

																			}
 ]
																	}
,
																	"patching_rect" : [ 680.0, 270.0, 43.0, 20.0 ],
																	"saved_object_attributes" : 																	{
																		"default_fontface" : 0,
																		"default_fontname" : "Andale Mono",
																		"default_fontsize" : 10.0,
																		"description" : "",
																		"digest" : "",
																		"fontface" : 0,
																		"fontname" : "Andale Mono",
																		"fontsize" : 10.0,
																		"globalpatchername" : "",
																		"tags" : ""
																	}
,
																	"text" : "p 9ths"
																}

															}
, 															{
																"box" : 																{
																	"fontname" : "Arial",
																	"fontsize" : 12.0,
																	"id" : "obj-30",
																	"maxclass" : "newobj",
																	"numinlets" : 1,
																	"numoutlets" : 1,
																	"outlettype" : [ "" ],
																	"patcher" : 																	{
																		"fileversion" : 1,
																		"appversion" : 																		{
																			"major" : 6,
																			"minor" : 1,
																			"revision" : 6,
																			"architecture" : "x86"
																		}
,
																		"rect" : [ 25.0, 69.0, 640.0, 480.0 ],
																		"bglocked" : 0,
																		"openinpresentation" : 0,
																		"default_fontsize" : 10.0,
																		"default_fontface" : 0,
																		"default_fontname" : "Andale Mono",
																		"gridonopen" : 0,
																		"gridsize" : [ 10.0, 10.0 ],
																		"gridsnaponopen" : 0,
																		"statusbarvisible" : 2,
																		"toolbarvisible" : 1,
																		"boxanimatetime" : 200,
																		"imprint" : 0,
																		"enablehscroll" : 1,
																		"enablevscroll" : 1,
																		"devicewidth" : 0.0,
																		"description" : "",
																		"digest" : "",
																		"tags" : "",
																		"boxes" : [ 																			{
																				"box" : 																				{
																					"fontname" : "Andale Mono",
																					"fontsize" : 10.0,
																					"frgb" : 0.0,
																					"id" : "obj-26",
																					"maxclass" : "comment",
																					"numinlets" : 1,
																					"numoutlets" : 0,
																					"patching_rect" : [ 110.0, 130.0, 130.0, 18.0 ],
																					"text" : "halfdim"
																				}

																			}
, 																			{
																				"box" : 																				{
																					"fontname" : "Andale Mono",
																					"fontsize" : 10.0,
																					"id" : "obj-3",
																					"linecount" : 2,
																					"maxclass" : "message",
																					"numinlets" : 2,
																					"numoutlets" : 1,
																					"outlettype" : [ "" ],
																					"patching_rect" : [ 50.0, 140.0, 132.0, 27.0 ],
																					"text" : "1 1 0 1 0 1 1 0 1 0 1 0"
																				}

																			}
, 																			{
																				"box" : 																				{
																					"fontname" : "Andale Mono",
																					"fontsize" : 10.0,
																					"id" : "obj-4",
																					"maxclass" : "newobj",
																					"numinlets" : 1,
																					"numoutlets" : 5,
																					"outlettype" : [ "", "", "", "", "" ],
																					"patching_rect" : [ 50.0, 100.0, 185.0, 18.0 ],
																					"text" : "regexp halfdim @substitute %0"
																				}

																			}
, 																			{
																				"box" : 																				{
																					"fontname" : "Andale Mono",
																					"fontsize" : 10.0,
																					"id" : "obj-53",
																					"maxclass" : "newobj",
																					"numinlets" : 1,
																					"numoutlets" : 5,
																					"outlettype" : [ "", "", "", "", "" ],
																					"patching_rect" : [ 650.0, 100.0, 161.0, 18.0 ],
																					"text" : "regexp dom @substitute %0"
																				}

																			}
, 																			{
																				"box" : 																				{
																					"fontname" : "Andale Mono",
																					"fontsize" : 10.0,
																					"id" : "obj-52",
																					"maxclass" : "newobj",
																					"numinlets" : 1,
																					"numoutlets" : 5,
																					"outlettype" : [ "", "", "", "", "" ],
																					"patching_rect" : [ 460.0, 100.0, 161.0, 18.0 ],
																					"text" : "regexp maj @substitute %0"
																				}

																			}
, 																			{
																				"box" : 																				{
																					"fontname" : "Andale Mono",
																					"fontsize" : 10.0,
																					"frgb" : 0.0,
																					"id" : "obj-50",
																					"maxclass" : "comment",
																					"numinlets" : 1,
																					"numoutlets" : 0,
																					"patching_rect" : [ 670.0, 130.0, 128.0, 18.0 ],
																					"text" : "mixolydian"
																				}

																			}
, 																			{
																				"box" : 																				{
																					"fontname" : "Andale Mono",
																					"fontsize" : 10.0,
																					"id" : "obj-51",
																					"maxclass" : "message",
																					"numinlets" : 2,
																					"numoutlets" : 1,
																					"outlettype" : [ "" ],
																					"patching_rect" : [ 650.0, 170.0, 153.0, 16.0 ],
																					"text" : "1 0 1 0 1 1 0 1 0 1 1 0"
																				}

																			}
, 																			{
																				"box" : 																				{
																					"fontname" : "Andale Mono",
																					"fontsize" : 10.0,
																					"frgb" : 0.0,
																					"id" : "obj-46",
																					"maxclass" : "comment",
																					"numinlets" : 1,
																					"numoutlets" : 0,
																					"patching_rect" : [ 490.0, 130.0, 130.0, 18.0 ],
																					"text" : "major"
																				}

																			}
, 																			{
																				"box" : 																				{
																					"fontname" : "Andale Mono",
																					"fontsize" : 10.0,
																					"id" : "obj-47",
																					"maxclass" : "message",
																					"numinlets" : 2,
																					"numoutlets" : 1,
																					"outlettype" : [ "" ],
																					"patching_rect" : [ 470.0, 170.0, 153.0, 16.0 ],
																					"text" : "1 0 1 0 1 1 0 1 0 1 0 1"
																				}

																			}
, 																			{
																				"box" : 																				{
																					"fontname" : "Andale Mono",
																					"fontsize" : 10.0,
																					"id" : "obj-41",
																					"maxclass" : "newobj",
																					"numinlets" : 1,
																					"numoutlets" : 5,
																					"outlettype" : [ "", "", "", "", "" ],
																					"patching_rect" : [ 270.0, 100.0, 161.0, 18.0 ],
																					"text" : "regexp min @substitute %0"
																				}

																			}
, 																			{
																				"box" : 																				{
																					"fontname" : "Andale Mono",
																					"fontsize" : 10.0,
																					"frgb" : 0.0,
																					"id" : "obj-23",
																					"maxclass" : "comment",
																					"numinlets" : 1,
																					"numoutlets" : 0,
																					"patching_rect" : [ 290.0, 130.0, 130.0, 18.0 ],
																					"text" : "dorian"
																				}

																			}
, 																			{
																				"box" : 																				{
																					"fontname" : "Andale Mono",
																					"fontsize" : 10.0,
																					"id" : "obj-24",
																					"maxclass" : "message",
																					"numinlets" : 2,
																					"numoutlets" : 1,
																					"outlettype" : [ "" ],
																					"patching_rect" : [ 270.0, 170.0, 153.0, 16.0 ],
																					"text" : "1 0 1 1 0 1 0 1 0 1 1 0"
																				}

																			}
, 																			{
																				"box" : 																				{
																					"comment" : "",
																					"id" : "obj-28",
																					"maxclass" : "inlet",
																					"numinlets" : 0,
																					"numoutlets" : 1,
																					"outlettype" : [ "" ],
																					"patching_rect" : [ 270.0, 40.0, 25.0, 25.0 ]
																				}

																			}
, 																			{
																				"box" : 																				{
																					"comment" : "",
																					"id" : "obj-29",
																					"maxclass" : "outlet",
																					"numinlets" : 1,
																					"numoutlets" : 0,
																					"patching_rect" : [ 355.0, 246.0, 25.0, 25.0 ]
																				}

																			}
 ],
																		"lines" : [ 																			{
																				"patchline" : 																				{
																					"destination" : [ "obj-29", 0 ],
																					"disabled" : 0,
																					"hidden" : 0,
																					"source" : [ "obj-24", 0 ]
																				}

																			}
, 																			{
																				"patchline" : 																				{
																					"destination" : [ "obj-4", 0 ],
																					"disabled" : 0,
																					"hidden" : 0,
																					"source" : [ "obj-28", 0 ]
																				}

																			}
, 																			{
																				"patchline" : 																				{
																					"destination" : [ "obj-41", 0 ],
																					"disabled" : 0,
																					"hidden" : 0,
																					"source" : [ "obj-28", 0 ]
																				}

																			}
, 																			{
																				"patchline" : 																				{
																					"destination" : [ "obj-52", 0 ],
																					"disabled" : 0,
																					"hidden" : 0,
																					"source" : [ "obj-28", 0 ]
																				}

																			}
, 																			{
																				"patchline" : 																				{
																					"destination" : [ "obj-53", 0 ],
																					"disabled" : 0,
																					"hidden" : 0,
																					"source" : [ "obj-28", 0 ]
																				}

																			}
, 																			{
																				"patchline" : 																				{
																					"destination" : [ "obj-29", 0 ],
																					"disabled" : 0,
																					"hidden" : 0,
																					"source" : [ "obj-3", 0 ]
																				}

																			}
, 																			{
																				"patchline" : 																				{
																					"destination" : [ "obj-3", 0 ],
																					"disabled" : 0,
																					"hidden" : 0,
																					"source" : [ "obj-4", 2 ]
																				}

																			}
, 																			{
																				"patchline" : 																				{
																					"destination" : [ "obj-24", 0 ],
																					"disabled" : 0,
																					"hidden" : 0,
																					"source" : [ "obj-41", 2 ]
																				}

																			}
, 																			{
																				"patchline" : 																				{
																					"destination" : [ "obj-29", 0 ],
																					"disabled" : 0,
																					"hidden" : 0,
																					"source" : [ "obj-47", 0 ]
																				}

																			}
, 																			{
																				"patchline" : 																				{
																					"destination" : [ "obj-29", 0 ],
																					"disabled" : 0,
																					"hidden" : 0,
																					"source" : [ "obj-51", 0 ]
																				}

																			}
, 																			{
																				"patchline" : 																				{
																					"destination" : [ "obj-47", 0 ],
																					"disabled" : 0,
																					"hidden" : 0,
																					"source" : [ "obj-52", 2 ]
																				}

																			}
, 																			{
																				"patchline" : 																				{
																					"destination" : [ "obj-51", 0 ],
																					"disabled" : 0,
																					"hidden" : 0,
																					"source" : [ "obj-53", 2 ]
																				}

																			}
 ]
																	}
,
																	"patching_rect" : [ 1680.0, 270.0, 55.0, 20.0 ],
																	"saved_object_attributes" : 																	{
																		"default_fontface" : 0,
																		"default_fontname" : "Andale Mono",
																		"default_fontsize" : 10.0,
																		"description" : "",
																		"digest" : "",
																		"fontface" : 0,
																		"fontname" : "Andale Mono",
																		"fontsize" : 10.0,
																		"globalpatchername" : "",
																		"tags" : ""
																	}
,
																	"text" : "p scales"
																}

															}
, 															{
																"box" : 																{
																	"fontname" : "Andale Mono",
																	"fontsize" : 10.0,
																	"id" : "obj-22",
																	"maxclass" : "message",
																	"numinlets" : 2,
																	"numoutlets" : 1,
																	"outlettype" : [ "" ],
																	"patching_rect" : [ 420.0, 310.0, 77.0, 16.0 ],
																	"text" : "select 10 1"
																}

															}
, 															{
																"box" : 																{
																	"fontname" : "Andale Mono",
																	"fontsize" : 10.0,
																	"id" : "obj-25",
																	"maxclass" : "newobj",
																	"numinlets" : 1,
																	"numoutlets" : 5,
																	"outlettype" : [ "", "", "", "", "" ],
																	"patching_rect" : [ 350.0, 270.0, 173.0, 18.0 ],
																	"text" : "regexp add13 @substitute %0"
																}

															}
, 															{
																"box" : 																{
																	"fontname" : "Andale Mono",
																	"fontsize" : 10.0,
																	"id" : "obj-20",
																	"maxclass" : "message",
																	"numinlets" : 2,
																	"numoutlets" : 1,
																	"outlettype" : [ "" ],
																	"patching_rect" : [ 590.0, 310.0, 101.0, 16.0 ],
																	"text" : "select 10 0 9 1"
																}

															}
, 															{
																"box" : 																{
																	"fontname" : "Andale Mono",
																	"fontsize" : 10.0,
																	"id" : "obj-21",
																	"maxclass" : "newobj",
																	"numinlets" : 1,
																	"numoutlets" : 5,
																	"outlettype" : [ "", "", "", "", "" ],
																	"patching_rect" : [ 520.0, 270.0, 161.0, 18.0 ],
																	"text" : "regexp b13 @substitute %0"
																}

															}
, 															{
																"box" : 																{
																	"fontname" : "Andale Mono",
																	"fontsize" : 10.0,
																	"id" : "obj-17",
																	"maxclass" : "newobj",
																	"numinlets" : 1,
																	"numoutlets" : 1,
																	"outlettype" : [ "" ],
																	"patcher" : 																	{
																		"fileversion" : 1,
																		"appversion" : 																		{
																			"major" : 6,
																			"minor" : 1,
																			"revision" : 6,
																			"architecture" : "x86"
																		}
,
																		"rect" : [ 0.0, 0.0, 640.0, 480.0 ],
																		"bglocked" : 0,
																		"openinpresentation" : 0,
																		"default_fontsize" : 10.0,
																		"default_fontface" : 0,
																		"default_fontname" : "Andale Mono",
																		"gridonopen" : 0,
																		"gridsize" : [ 10.0, 10.0 ],
																		"gridsnaponopen" : 0,
																		"statusbarvisible" : 2,
																		"toolbarvisible" : 1,
																		"boxanimatetime" : 200,
																		"imprint" : 0,
																		"enablehscroll" : 1,
																		"enablevscroll" : 1,
																		"devicewidth" : 0.0,
																		"description" : "",
																		"digest" : "",
																		"tags" : "",
																		"boxes" : [ 																			{
																				"box" : 																				{
																					"fontname" : "Arial",
																					"fontsize" : 12.0,
																					"id" : "obj-13",
																					"maxclass" : "newobj",
																					"numinlets" : 1,
																					"numoutlets" : 0,
																					"patching_rect" : [ 120.0, 130.0, 44.0, 20.0 ],
																					"text" : "print 1"
																				}

																			}
, 																			{
																				"box" : 																				{
																					"fontname" : "Arial",
																					"fontsize" : 12.0,
																					"id" : "obj-12",
																					"maxclass" : "newobj",
																					"numinlets" : 1,
																					"numoutlets" : 0,
																					"patching_rect" : [ 120.0, 170.0, 34.0, 20.0 ],
																					"text" : "print"
																				}

																			}
, 																			{
																				"box" : 																				{
																					"fontname" : "Arial",
																					"fontsize" : 12.0,
																					"id" : "obj-11",
																					"maxclass" : "message",
																					"numinlets" : 2,
																					"numoutlets" : 1,
																					"outlettype" : [ "" ],
																					"patching_rect" : [ 50.0, 130.0, 32.5, 18.0 ],
																					"text" : "$2"
																				}

																			}
, 																			{
																				"box" : 																				{
																					"fontname" : "Arial",
																					"fontsize" : 12.0,
																					"id" : "obj-9",
																					"maxclass" : "newobj",
																					"numinlets" : 1,
																					"numoutlets" : 1,
																					"outlettype" : [ "list" ],
																					"patching_rect" : [ 50.0, 100.0, 58.0, 20.0 ],
																					"text" : "listfunnel"
																				}

																			}
, 																			{
																				"box" : 																				{
																					"comment" : "",
																					"id" : "obj-14",
																					"maxclass" : "inlet",
																					"numinlets" : 0,
																					"numoutlets" : 1,
																					"outlettype" : [ "" ],
																					"patching_rect" : [ 50.0, 40.0, 25.0, 25.0 ]
																				}

																			}
, 																			{
																				"box" : 																				{
																					"comment" : "",
																					"id" : "obj-15",
																					"maxclass" : "outlet",
																					"numinlets" : 1,
																					"numoutlets" : 0,
																					"patching_rect" : [ 50.0, 250.0, 25.0, 25.0 ]
																				}

																			}
 ],
																		"lines" : [ 																			{
																				"patchline" : 																				{
																					"destination" : [ "obj-12", 0 ],
																					"disabled" : 0,
																					"hidden" : 0,
																					"source" : [ "obj-11", 0 ]
																				}

																			}
, 																			{
																				"patchline" : 																				{
																					"destination" : [ "obj-15", 0 ],
																					"disabled" : 0,
																					"hidden" : 0,
																					"source" : [ "obj-11", 0 ]
																				}

																			}
, 																			{
																				"patchline" : 																				{
																					"destination" : [ "obj-9", 0 ],
																					"disabled" : 0,
																					"hidden" : 0,
																					"source" : [ "obj-14", 0 ]
																				}

																			}
, 																			{
																				"patchline" : 																				{
																					"destination" : [ "obj-11", 0 ],
																					"disabled" : 0,
																					"hidden" : 0,
																					"source" : [ "obj-9", 0 ]
																				}

																			}
, 																			{
																				"patchline" : 																				{
																					"destination" : [ "obj-13", 0 ],
																					"disabled" : 0,
																					"hidden" : 0,
																					"source" : [ "obj-9", 0 ]
																				}

																			}
 ]
																	}
,
																	"patching_rect" : [ 1390.0, 70.0, 115.0, 18.0 ],
																	"saved_object_attributes" : 																	{
																		"default_fontface" : 0,
																		"default_fontname" : "Andale Mono",
																		"default_fontsize" : 10.0,
																		"description" : "",
																		"digest" : "",
																		"fontface" : 0,
																		"fontname" : "Andale Mono",
																		"fontsize" : 10.0,
																		"globalpatchername" : "",
																		"tags" : ""
																	}
,
																	"text" : "p"
																}

															}
, 															{
																"box" : 																{
																	"fontname" : "Andale Mono",
																	"fontsize" : 10.0,
																	"id" : "obj-5",
																	"maxclass" : "message",
																	"numinlets" : 2,
																	"numoutlets" : 1,
																	"outlettype" : [ "" ],
																	"patching_rect" : [ 230.0, 310.0, 95.0, 16.0 ],
																	"text" : "select 5 0 4 0"
																}

															}
, 															{
																"box" : 																{
																	"fontname" : "Andale Mono",
																	"fontsize" : 10.0,
																	"id" : "obj-6",
																	"maxclass" : "newobj",
																	"numinlets" : 1,
																	"numoutlets" : 5,
																	"outlettype" : [ "", "", "", "", "" ],
																	"patching_rect" : [ 160.0, 270.0, 161.0, 18.0 ],
																	"text" : "regexp sus @substitute %0"
																}

															}
, 															{
																"box" : 																{
																	"fontname" : "Andale Mono",
																	"fontsize" : 10.0,
																	"id" : "obj-1",
																	"maxclass" : "message",
																	"numinlets" : 2,
																	"numoutlets" : 1,
																	"outlettype" : [ "" ],
																	"patching_rect" : [ 890.0, 310.0, 95.0, 16.0 ],
																	"text" : "select 8 0 9 1"
																}

															}
, 															{
																"box" : 																{
																	"fontname" : "Andale Mono",
																	"fontsize" : 10.0,
																	"id" : "obj-2",
																	"maxclass" : "newobj",
																	"numinlets" : 1,
																	"numoutlets" : 5,
																	"outlettype" : [ "", "", "", "", "" ],
																	"patching_rect" : [ 820.0, 270.0, 155.0, 18.0 ],
																	"text" : "regexp s5 @substitute %0"
																}

															}
, 															{
																"box" : 																{
																	"fontname" : "Andale Mono",
																	"fontsize" : 10.0,
																	"id" : "obj-69",
																	"maxclass" : "message",
																	"numinlets" : 2,
																	"numoutlets" : 1,
																	"outlettype" : [ "" ],
																	"patching_rect" : [ 1310.0, 310.0, 95.0, 16.0 ],
																	"text" : "select 6 0 7 1"
																}

															}
, 															{
																"box" : 																{
																	"fontname" : "Andale Mono",
																	"fontsize" : 10.0,
																	"id" : "obj-67",
																	"maxclass" : "newobj",
																	"numinlets" : 1,
																	"numoutlets" : 5,
																	"outlettype" : [ "", "", "", "", "" ],
																	"patching_rect" : [ 1240.0, 270.0, 165.0, 18.0 ],
																	"text" : "regexp s11 @substitute %0"
																}

															}
, 															{
																"box" : 																{
																	"fontname" : "Andale Mono",
																	"fontsize" : 10.0,
																	"id" : "obj-66",
																	"maxclass" : "newobj",
																	"numinlets" : 1,
																	"numoutlets" : 2,
																	"outlettype" : [ "", "" ],
																	"patching_rect" : [ 1200.0, 180.0, 390.0, 18.0 ],
																	"text" : "t l l"
																}

															}
, 															{
																"box" : 																{
																	"fontname" : "Andale Mono",
																	"fontsize" : 10.0,
																	"id" : "obj-63",
																	"maxclass" : "message",
																	"numinlets" : 2,
																	"numoutlets" : 1,
																	"outlettype" : [ "" ],
																	"patching_rect" : [ 1440.0, 310.0, 107.0, 16.0 ],
																	"text" : "select 11 0 12 1"
																}

															}
, 															{
																"box" : 																{
																	"fontname" : "Andale Mono",
																	"fontsize" : 10.0,
																	"id" : "obj-58",
																	"maxclass" : "newobj",
																	"numinlets" : 1,
																	"numoutlets" : 5,
																	"outlettype" : [ "", "", "", "", "" ],
																	"patching_rect" : [ 1440.0, 270.0, 167.0, 18.0 ],
																	"text" : "regexp maj7 @substitute %0"
																}

															}
, 															{
																"box" : 																{
																	"comment" : "",
																	"id" : "obj-72",
																	"maxclass" : "inlet",
																	"numinlets" : 0,
																	"numoutlets" : 1,
																	"outlettype" : [ "" ],
																	"patching_rect" : [ 1200.0, 20.0, 25.0, 25.0 ],
																	"varname" : "u721008822"
																}

															}
, 															{
																"box" : 																{
																	"comment" : "",
																	"id" : "obj-74",
																	"maxclass" : "outlet",
																	"numinlets" : 1,
																	"numoutlets" : 0,
																	"patching_rect" : [ 1630.0, 462.943481, 25.0, 25.0 ],
																	"varname" : "u889008823"
																}

															}
 ],
														"lines" : [ 															{
																"patchline" : 																{
																	"destination" : [ "obj-11", 1 ],
																	"disabled" : 0,
																	"hidden" : 0,
																	"source" : [ "obj-1", 0 ]
																}

															}
, 															{
																"patchline" : 																{
																	"destination" : [ "obj-19", 0 ],
																	"disabled" : 0,
																	"hidden" : 0,
																	"source" : [ "obj-1", 0 ]
																}

															}
, 															{
																"patchline" : 																{
																	"destination" : [ "obj-1", 0 ],
																	"disabled" : 0,
																	"hidden" : 0,
																	"source" : [ "obj-2", 2 ]
																}

															}
, 															{
																"patchline" : 																{
																	"destination" : [ "obj-74", 0 ],
																	"disabled" : 0,
																	"hidden" : 0,
																	"source" : [ "obj-20", 0 ]
																}

															}
, 															{
																"patchline" : 																{
																	"destination" : [ "obj-20", 0 ],
																	"disabled" : 0,
																	"hidden" : 0,
																	"source" : [ "obj-21", 2 ]
																}

															}
, 															{
																"patchline" : 																{
																	"destination" : [ "obj-74", 0 ],
																	"disabled" : 0,
																	"hidden" : 0,
																	"source" : [ "obj-22", 0 ]
																}

															}
, 															{
																"patchline" : 																{
																	"destination" : [ "obj-22", 0 ],
																	"disabled" : 0,
																	"hidden" : 0,
																	"source" : [ "obj-25", 2 ]
																}

															}
, 															{
																"patchline" : 																{
																	"destination" : [ "obj-19", 0 ],
																	"disabled" : 0,
																	"hidden" : 0,
																	"source" : [ "obj-30", 0 ]
																}

															}
, 															{
																"patchline" : 																{
																	"destination" : [ "obj-74", 0 ],
																	"disabled" : 0,
																	"hidden" : 0,
																	"source" : [ "obj-30", 0 ]
																}

															}
, 															{
																"patchline" : 																{
																	"destination" : [ "obj-8", 1 ],
																	"disabled" : 0,
																	"hidden" : 0,
																	"source" : [ "obj-30", 0 ]
																}

															}
, 															{
																"patchline" : 																{
																	"destination" : [ "obj-16", 1 ],
																	"disabled" : 0,
																	"hidden" : 0,
																	"source" : [ "obj-33", 0 ]
																}

															}
, 															{
																"patchline" : 																{
																	"destination" : [ "obj-74", 0 ],
																	"disabled" : 0,
																	"hidden" : 0,
																	"source" : [ "obj-33", 0 ]
																}

															}
, 															{
																"patchline" : 																{
																	"destination" : [ "obj-66", 0 ],
																	"disabled" : 0,
																	"hidden" : 0,
																	"source" : [ "obj-4", 0 ]
																}

															}
, 															{
																"patchline" : 																{
																	"destination" : [ "obj-74", 0 ],
																	"disabled" : 0,
																	"hidden" : 0,
																	"source" : [ "obj-5", 0 ]
																}

															}
, 															{
																"patchline" : 																{
																	"destination" : [ "obj-63", 0 ],
																	"disabled" : 0,
																	"hidden" : 0,
																	"source" : [ "obj-58", 2 ]
																}

															}
, 															{
																"patchline" : 																{
																	"destination" : [ "obj-5", 0 ],
																	"disabled" : 0,
																	"hidden" : 0,
																	"source" : [ "obj-6", 2 ]
																}

															}
, 															{
																"patchline" : 																{
																	"destination" : [ "obj-19", 0 ],
																	"disabled" : 0,
																	"hidden" : 0,
																	"source" : [ "obj-63", 0 ]
																}

															}
, 															{
																"patchline" : 																{
																	"destination" : [ "obj-74", 0 ],
																	"disabled" : 0,
																	"hidden" : 0,
																	"source" : [ "obj-63", 0 ]
																}

															}
, 															{
																"patchline" : 																{
																	"destination" : [ "obj-2", 0 ],
																	"disabled" : 0,
																	"hidden" : 0,
																	"source" : [ "obj-66", 0 ]
																}

															}
, 															{
																"patchline" : 																{
																	"destination" : [ "obj-21", 0 ],
																	"disabled" : 0,
																	"hidden" : 0,
																	"source" : [ "obj-66", 0 ]
																}

															}
, 															{
																"patchline" : 																{
																	"destination" : [ "obj-25", 0 ],
																	"disabled" : 0,
																	"hidden" : 0,
																	"source" : [ "obj-66", 0 ]
																}

															}
, 															{
																"patchline" : 																{
																	"destination" : [ "obj-30", 0 ],
																	"disabled" : 0,
																	"hidden" : 0,
																	"source" : [ "obj-66", 1 ]
																}

															}
, 															{
																"patchline" : 																{
																	"destination" : [ "obj-33", 0 ],
																	"disabled" : 0,
																	"hidden" : 0,
																	"source" : [ "obj-66", 0 ]
																}

															}
, 															{
																"patchline" : 																{
																	"destination" : [ "obj-58", 0 ],
																	"disabled" : 0,
																	"hidden" : 0,
																	"source" : [ "obj-66", 0 ]
																}

															}
, 															{
																"patchline" : 																{
																	"destination" : [ "obj-6", 0 ],
																	"disabled" : 0,
																	"hidden" : 0,
																	"source" : [ "obj-66", 0 ]
																}

															}
, 															{
																"patchline" : 																{
																	"destination" : [ "obj-67", 0 ],
																	"disabled" : 0,
																	"hidden" : 0,
																	"source" : [ "obj-66", 0 ]
																}

															}
, 															{
																"patchline" : 																{
																	"destination" : [ "obj-69", 0 ],
																	"disabled" : 0,
																	"hidden" : 0,
																	"source" : [ "obj-67", 2 ]
																}

															}
, 															{
																"patchline" : 																{
																	"destination" : [ "obj-10", 1 ],
																	"disabled" : 0,
																	"hidden" : 0,
																	"source" : [ "obj-69", 0 ]
																}

															}
, 															{
																"patchline" : 																{
																	"destination" : [ "obj-19", 0 ],
																	"disabled" : 0,
																	"hidden" : 0,
																	"source" : [ "obj-69", 0 ]
																}

															}
, 															{
																"patchline" : 																{
																	"destination" : [ "obj-74", 0 ],
																	"disabled" : 0,
																	"hidden" : 0,
																	"source" : [ "obj-69", 0 ]
																}

															}
, 															{
																"patchline" : 																{
																	"destination" : [ "obj-4", 1 ],
																	"disabled" : 0,
																	"hidden" : 0,
																	"source" : [ "obj-72", 0 ]
																}

															}
, 															{
																"patchline" : 																{
																	"destination" : [ "obj-66", 0 ],
																	"disabled" : 0,
																	"hidden" : 0,
																	"source" : [ "obj-72", 0 ]
																}

															}
 ]
													}
,
													"patching_rect" : [ 200.0, 170.0, 149.0, 18.0 ],
													"saved_object_attributes" : 													{
														"default_fontface" : 0,
														"default_fontname" : "Arial",
														"default_fontsize" : 12.0,
														"description" : "",
														"digest" : "",
														"fontface" : 0,
														"fontname" : "Arial",
														"fontsize" : 12.0,
														"globalpatchername" : "",
														"tags" : ""
													}
,
													"text" : "p conversion2scale/mode"
												}

											}
, 											{
												"box" : 												{
													"id" : "obj-19",
													"maxclass" : "multislider",
													"numinlets" : 1,
													"numoutlets" : 2,
													"outlettype" : [ "", "" ],
													"parameter_enable" : 0,
													"patching_rect" : [ 200.0, 200.0, 310.0, 50.0 ],
													"setminmax" : [ 0.0, 1.0 ],
													"setstyle" : 1,
													"settype" : 0,
													"size" : 12,
													"spacing" : 2
												}

											}
, 											{
												"box" : 												{
													"fontname" : "Andale Mono",
													"fontsize" : 10.0,
													"id" : "obj-9",
													"items" : [ "C", ",", "Db", ",", "D", ",", "Eb", ",", "E", ",", "F", ",", "F#", ",", "G", ",", "Ab", ",", "A", ",", "Bb", ",", "B" ],
													"maxclass" : "umenu",
													"numinlets" : 1,
													"numoutlets" : 3,
													"outlettype" : [ "int", "", "" ],
													"parameter_enable" : 0,
													"patching_rect" : [ 30.0, 164.179565, 100.0, 18.0 ]
												}

											}
, 											{
												"box" : 												{
													"fontname" : "Andale Mono",
													"fontsize" : 10.0,
													"id" : "obj-13",
													"maxclass" : "message",
													"numinlets" : 2,
													"numoutlets" : 1,
													"outlettype" : [ "" ],
													"patching_rect" : [ 30.0, 140.0, 64.0, 16.0 ],
													"text" : "symbol $1"
												}

											}
, 											{
												"box" : 												{
													"comment" : "",
													"id" : "obj-98",
													"maxclass" : "inlet",
													"numinlets" : 0,
													"numoutlets" : 1,
													"outlettype" : [ "" ],
													"patching_rect" : [ 30.0, 40.0, 25.0, 25.0 ]
												}

											}
, 											{
												"box" : 												{
													"comment" : "",
													"id" : "obj-99",
													"maxclass" : "outlet",
													"numinlets" : 1,
													"numoutlets" : 0,
													"patching_rect" : [ 50.0, 410.0, 25.0, 25.0 ]
												}

											}
, 											{
												"box" : 												{
													"fontname" : "Andale Mono",
													"fontsize" : 10.0,
													"id" : "obj-56",
													"maxclass" : "newobj",
													"numinlets" : 2,
													"numoutlets" : 1,
													"outlettype" : [ "int" ],
													"patching_rect" : [ 90.0, 330.0, 41.0, 18.0 ],
													"text" : "!- 12"
												}

											}
, 											{
												"box" : 												{
													"fontname" : "Andale Mono",
													"fontsize" : 10.0,
													"id" : "obj-53",
													"maxclass" : "newobj",
													"numinlets" : 1,
													"numoutlets" : 1,
													"outlettype" : [ "" ],
													"patching_rect" : [ 50.0, 380.0, 53.0, 18.0 ],
													"text" : "prepend"
												}

											}
, 											{
												"box" : 												{
													"fontname" : "Andale Mono",
													"fontsize" : 10.0,
													"id" : "obj-52",
													"maxclass" : "newobj",
													"numinlets" : 1,
													"numoutlets" : 1,
													"outlettype" : [ "" ],
													"patching_rect" : [ 100.0, 380.0, 77.0, 18.0 ],
													"text" : "prepend set"
												}

											}
, 											{
												"box" : 												{
													"fontname" : "Andale Mono",
													"fontsize" : 10.0,
													"id" : "obj-44",
													"maxclass" : "newobj",
													"numinlets" : 2,
													"numoutlets" : 2,
													"outlettype" : [ "", "" ],
													"patching_rect" : [ 50.0, 350.0, 89.0, 18.0 ],
													"text" : "zl 1024 slice"
												}

											}
, 											{
												"box" : 												{
													"fontname" : "Andale Mono",
													"fontsize" : 10.0,
													"id" : "obj-43",
													"maxclass" : "newobj",
													"numinlets" : 3,
													"numoutlets" : 3,
													"outlettype" : [ "", "", "" ],
													"patching_rect" : [ 50.0, 290.0, 107.0, 18.0 ],
													"text" : "route scale root"
												}

											}
 ],
										"lines" : [ 											{
												"patchline" : 												{
													"destination" : [ "obj-43", 0 ],
													"disabled" : 0,
													"hidden" : 0,
													"source" : [ "obj-1", 0 ]
												}

											}
, 											{
												"patchline" : 												{
													"destination" : [ "obj-43", 0 ],
													"disabled" : 0,
													"hidden" : 0,
													"source" : [ "obj-10", 0 ]
												}

											}
, 											{
												"patchline" : 												{
													"destination" : [ "obj-9", 0 ],
													"disabled" : 0,
													"hidden" : 0,
													"source" : [ "obj-13", 0 ]
												}

											}
, 											{
												"patchline" : 												{
													"destination" : [ "obj-1", 0 ],
													"disabled" : 0,
													"hidden" : 0,
													"source" : [ "obj-17", 1 ]
												}

											}
, 											{
												"patchline" : 												{
													"destination" : [ "obj-20", 0 ],
													"disabled" : 0,
													"hidden" : 0,
													"source" : [ "obj-17", 2 ]
												}

											}
, 											{
												"patchline" : 												{
													"destination" : [ "obj-7", 0 ],
													"disabled" : 0,
													"hidden" : 0,
													"source" : [ "obj-17", 0 ]
												}

											}
, 											{
												"patchline" : 												{
													"destination" : [ "obj-10", 0 ],
													"disabled" : 0,
													"hidden" : 0,
													"source" : [ "obj-19", 0 ]
												}

											}
, 											{
												"patchline" : 												{
													"destination" : [ "obj-4", 1 ],
													"disabled" : 0,
													"hidden" : 0,
													"source" : [ "obj-2", 0 ]
												}

											}
, 											{
												"patchline" : 												{
													"destination" : [ "obj-53", 0 ],
													"disabled" : 0,
													"hidden" : 0,
													"source" : [ "obj-20", 0 ]
												}

											}
, 											{
												"patchline" : 												{
													"destination" : [ "obj-13", 0 ],
													"disabled" : 0,
													"hidden" : 0,
													"source" : [ "obj-21", 0 ]
												}

											}
, 											{
												"patchline" : 												{
													"destination" : [ "obj-2", 1 ],
													"disabled" : 0,
													"hidden" : 0,
													"midpoints" : [ 122.5, 133.179565, 239.0, 133.179565, 239.0, 82.0, 380.5, 82.0 ],
													"source" : [ "obj-21", 1 ]
												}

											}
, 											{
												"patchline" : 												{
													"destination" : [ "obj-8", 0 ],
													"disabled" : 0,
													"hidden" : 0,
													"source" : [ "obj-3", 0 ]
												}

											}
, 											{
												"patchline" : 												{
													"destination" : [ "obj-5", 0 ],
													"disabled" : 0,
													"hidden" : 0,
													"source" : [ "obj-4", 1 ]
												}

											}
, 											{
												"patchline" : 												{
													"destination" : [ "obj-75", 0 ],
													"disabled" : 0,
													"hidden" : 0,
													"source" : [ "obj-4", 0 ]
												}

											}
, 											{
												"patchline" : 												{
													"destination" : [ "obj-44", 0 ],
													"disabled" : 0,
													"hidden" : 0,
													"source" : [ "obj-43", 0 ]
												}

											}
, 											{
												"patchline" : 												{
													"destination" : [ "obj-56", 0 ],
													"disabled" : 0,
													"hidden" : 0,
													"source" : [ "obj-43", 1 ]
												}

											}
, 											{
												"patchline" : 												{
													"destination" : [ "obj-52", 0 ],
													"disabled" : 0,
													"hidden" : 0,
													"source" : [ "obj-44", 1 ]
												}

											}
, 											{
												"patchline" : 												{
													"destination" : [ "obj-53", 0 ],
													"disabled" : 0,
													"hidden" : 0,
													"source" : [ "obj-44", 0 ]
												}

											}
, 											{
												"patchline" : 												{
													"destination" : [ "obj-75", 0 ],
													"disabled" : 0,
													"hidden" : 0,
													"source" : [ "obj-5", 0 ]
												}

											}
, 											{
												"patchline" : 												{
													"destination" : [ "obj-53", 0 ],
													"disabled" : 0,
													"hidden" : 0,
													"source" : [ "obj-52", 0 ]
												}

											}
, 											{
												"patchline" : 												{
													"destination" : [ "obj-99", 0 ],
													"disabled" : 0,
													"hidden" : 0,
													"source" : [ "obj-53", 0 ]
												}

											}
, 											{
												"patchline" : 												{
													"destination" : [ "obj-44", 1 ],
													"disabled" : 0,
													"hidden" : 0,
													"source" : [ "obj-56", 0 ]
												}

											}
, 											{
												"patchline" : 												{
													"destination" : [ "obj-19", 0 ],
													"disabled" : 0,
													"hidden" : 0,
													"source" : [ "obj-75", 0 ]
												}

											}
, 											{
												"patchline" : 												{
													"destination" : [ "obj-19", 0 ],
													"disabled" : 0,
													"hidden" : 0,
													"source" : [ "obj-8", 2 ]
												}

											}
, 											{
												"patchline" : 												{
													"destination" : [ "obj-2", 0 ],
													"disabled" : 0,
													"hidden" : 0,
													"source" : [ "obj-8", 0 ]
												}

											}
, 											{
												"patchline" : 												{
													"destination" : [ "obj-4", 0 ],
													"disabled" : 0,
													"hidden" : 0,
													"source" : [ "obj-8", 1 ]
												}

											}
, 											{
												"patchline" : 												{
													"destination" : [ "obj-17", 0 ],
													"disabled" : 0,
													"hidden" : 0,
													"source" : [ "obj-9", 0 ]
												}

											}
, 											{
												"patchline" : 												{
													"destination" : [ "obj-21", 0 ],
													"disabled" : 0,
													"hidden" : 0,
													"source" : [ "obj-98", 0 ]
												}

											}
 ]
									}
,
									"patching_rect" : [ 290.0, 250.0, 128.0, 18.0 ],
									"saved_object_attributes" : 									{
										"default_fontface" : 0,
										"default_fontname" : "Andale Mono",
										"default_fontsize" : 10.0,
										"description" : "",
										"digest" : "",
										"fontface" : 0,
										"fontname" : "Andale Mono",
										"fontsize" : 10.0,
										"globalpatchername" : "",
										"tags" : ""
									}
,
									"text" : "p scaleLogic"
								}

							}
, 							{
								"box" : 								{
									"fontname" : "Andale Mono",
									"fontsize" : 10.0,
									"id" : "obj-44",
									"maxclass" : "newobj",
									"numinlets" : 2,
									"numoutlets" : 2,
									"outlettype" : [ "", "" ],
									"patching_rect" : [ 290.0, 190.0, 83.0, 18.0 ],
									"text" : "route symbol"
								}

							}
, 							{
								"box" : 								{
									"fontname" : "Andale Mono",
									"fontsize" : 10.0,
									"id" : "obj-38",
									"maxclass" : "newobj",
									"numinlets" : 1,
									"numoutlets" : 1,
									"outlettype" : [ "" ],
									"patching_rect" : [ 290.0, 210.0, 71.0, 18.0 ],
									"text" : "fromsymbol"
								}

							}
, 							{
								"box" : 								{
									"fontname" : "Andale Mono",
									"fontsize" : 10.0,
									"id" : "obj-12",
									"maxclass" : "newobj",
									"numinlets" : 1,
									"numoutlets" : 1,
									"outlettype" : [ "" ],
									"patching_rect" : [ 290.0, 120.0, 89.0, 18.0 ],
									"text" : "prepend chord"
								}

							}
, 							{
								"box" : 								{
									"fontname" : "Andale Mono",
									"fontsize" : 10.0,
									"id" : "obj-1",
									"linecount" : 2,
									"maxclass" : "newobj",
									"numinlets" : 2,
									"numoutlets" : 1,
									"outlettype" : [ "" ],
									"patching_rect" : [ 290.0, 150.0, 150.0, 29.0 ],
									"text" : "pyext AAIM_chordFinder chordFinderClass"
								}

							}
, 							{
								"box" : 								{
									"comment" : "",
									"id" : "obj-31",
									"maxclass" : "inlet",
									"numinlets" : 0,
									"numoutlets" : 1,
									"outlettype" : [ "" ],
									"patching_rect" : [ 70.0, 40.0, 25.0, 25.0 ]
								}

							}
, 							{
								"box" : 								{
									"comment" : "",
									"id" : "obj-32",
									"maxclass" : "outlet",
									"numinlets" : 1,
									"numoutlets" : 0,
									"patching_rect" : [ 175.0, 408.0, 25.0, 25.0 ]
								}

							}
 ],
						"lines" : [ 							{
								"patchline" : 								{
									"destination" : [ "obj-44", 0 ],
									"disabled" : 0,
									"hidden" : 0,
									"source" : [ "obj-1", 0 ]
								}

							}
, 							{
								"patchline" : 								{
									"destination" : [ "obj-2", 0 ],
									"disabled" : 0,
									"hidden" : 0,
									"source" : [ "obj-10", 0 ]
								}

							}
, 							{
								"patchline" : 								{
									"destination" : [ "obj-79", 1 ],
									"disabled" : 0,
									"hidden" : 0,
									"source" : [ "obj-101", 0 ]
								}

							}
, 							{
								"patchline" : 								{
									"destination" : [ "obj-9", 0 ],
									"disabled" : 0,
									"hidden" : 0,
									"source" : [ "obj-101", 1 ]
								}

							}
, 							{
								"patchline" : 								{
									"destination" : [ "obj-1", 1 ],
									"disabled" : 0,
									"hidden" : 0,
									"midpoints" : [ 299.5, 146.5, 430.5, 146.5 ],
									"source" : [ "obj-12", 0 ]
								}

							}
, 							{
								"patchline" : 								{
									"destination" : [ "obj-12", 0 ],
									"disabled" : 0,
									"hidden" : 0,
									"source" : [ "obj-18", 2 ]
								}

							}
, 							{
								"patchline" : 								{
									"destination" : [ "obj-2", 0 ],
									"disabled" : 0,
									"hidden" : 0,
									"source" : [ "obj-18", 0 ]
								}

							}
, 							{
								"patchline" : 								{
									"destination" : [ "obj-79", 0 ],
									"disabled" : 0,
									"hidden" : 0,
									"source" : [ "obj-18", 1 ]
								}

							}
, 							{
								"patchline" : 								{
									"destination" : [ "obj-24", 0 ],
									"disabled" : 0,
									"hidden" : 0,
									"source" : [ "obj-2", 0 ]
								}

							}
, 							{
								"patchline" : 								{
									"destination" : [ "obj-32", 0 ],
									"disabled" : 0,
									"hidden" : 0,
									"source" : [ "obj-24", 0 ]
								}

							}
, 							{
								"patchline" : 								{
									"destination" : [ "obj-1", 0 ],
									"disabled" : 0,
									"hidden" : 0,
									"source" : [ "obj-3", 0 ]
								}

							}
, 							{
								"patchline" : 								{
									"destination" : [ "obj-18", 0 ],
									"disabled" : 0,
									"hidden" : 0,
									"source" : [ "obj-31", 0 ]
								}

							}
, 							{
								"patchline" : 								{
									"destination" : [ "obj-10", 0 ],
									"disabled" : 0,
									"hidden" : 0,
									"source" : [ "obj-38", 0 ]
								}

							}
, 							{
								"patchline" : 								{
									"destination" : [ "obj-101", 0 ],
									"disabled" : 0,
									"hidden" : 0,
									"source" : [ "obj-38", 0 ]
								}

							}
, 							{
								"patchline" : 								{
									"destination" : [ "obj-38", 0 ],
									"disabled" : 0,
									"hidden" : 0,
									"source" : [ "obj-44", 0 ]
								}

							}
, 							{
								"patchline" : 								{
									"destination" : [ "obj-101", 1 ],
									"disabled" : 0,
									"hidden" : 0,
									"source" : [ "obj-79", 0 ]
								}

							}
, 							{
								"patchline" : 								{
									"destination" : [ "obj-82", 0 ],
									"disabled" : 0,
									"hidden" : 0,
									"source" : [ "obj-79", 0 ]
								}

							}
, 							{
								"patchline" : 								{
									"destination" : [ "obj-23", 0 ],
									"disabled" : 0,
									"hidden" : 0,
									"source" : [ "obj-82", 1 ]
								}

							}
, 							{
								"patchline" : 								{
									"destination" : [ "obj-84", 0 ],
									"disabled" : 0,
									"hidden" : 0,
									"source" : [ "obj-82", 0 ]
								}

							}
, 							{
								"patchline" : 								{
									"destination" : [ "obj-2", 0 ],
									"disabled" : 0,
									"hidden" : 0,
									"source" : [ "obj-84", 0 ]
								}

							}
, 							{
								"patchline" : 								{
									"destination" : [ "obj-32", 0 ],
									"disabled" : 0,
									"hidden" : 0,
									"source" : [ "obj-9", 0 ]
								}

							}
 ]
					}
,
					"patching_rect" : [ 125.0, 275.0, 90.0, 40.0 ],
					"saved_object_attributes" : 					{
						"default_fontface" : 0,
						"default_fontname" : "Andale Mono",
						"default_fontsize" : 10.0,
						"description" : "",
						"digest" : "",
						"fontface" : 0,
						"fontname" : "Andale Mono",
						"fontsize" : 10.0,
						"globalpatchername" : "",
						"tags" : ""
					}
,
					"text" : "p determinScaleFromChord"
				}

			}
 ],
		"lines" : [  ],
		"dependency_cache" : [  ]
	}

}
