{
	"patcher" : 	{
		"fileversion" : 1,
		"appversion" : 		{
			"major" : 8,
			"minor" : 2,
			"revision" : 1,
			"architecture" : "x64",
			"modernui" : 1
		}
,
		"classnamespace" : "box",
		"rect" : [ 59.0, 104.0, 640.0, 480.0 ],
		"bglocked" : 0,
		"openinpresentation" : 0,
		"default_fontsize" : 12.0,
		"default_fontface" : 0,
		"default_fontname" : "Arial",
		"gridonopen" : 1,
		"gridsize" : [ 15.0, 15.0 ],
		"gridsnaponopen" : 1,
		"objectsnaponopen" : 1,
		"statusbarvisible" : 2,
		"toolbarvisible" : 1,
		"lefttoolbarpinned" : 0,
		"toptoolbarpinned" : 0,
		"righttoolbarpinned" : 0,
		"bottomtoolbarpinned" : 0,
		"toolbars_unpinned_last_save" : 0,
		"tallnewobj" : 0,
		"boxanimatetime" : 200,
		"enablehscroll" : 1,
		"enablevscroll" : 1,
		"devicewidth" : 0.0,
		"description" : "",
		"digest" : "",
		"tags" : "",
		"style" : "",
		"subpatcher_template" : "",
		"assistshowspatchername" : 0,
		"boxes" : [ 			{
				"box" : 				{
					"id" : "obj-39",
					"maxclass" : "newobj",
					"numinlets" : 1,
					"numoutlets" : 1,
					"outlettype" : [ "signal" ],
					"patcher" : 					{
						"fileversion" : 1,
						"appversion" : 						{
							"major" : 8,
							"minor" : 2,
							"revision" : 1,
							"architecture" : "x64",
							"modernui" : 1
						}
,
						"classnamespace" : "box",
						"rect" : [ 0.0, 0.0, 640.0, 480.0 ],
						"bglocked" : 0,
						"openinpresentation" : 0,
						"default_fontsize" : 12.0,
						"default_fontface" : 0,
						"default_fontname" : "Arial",
						"gridonopen" : 1,
						"gridsize" : [ 15.0, 15.0 ],
						"gridsnaponopen" : 1,
						"objectsnaponopen" : 1,
						"statusbarvisible" : 2,
						"toolbarvisible" : 1,
						"lefttoolbarpinned" : 0,
						"toptoolbarpinned" : 0,
						"righttoolbarpinned" : 0,
						"bottomtoolbarpinned" : 0,
						"toolbars_unpinned_last_save" : 0,
						"tallnewobj" : 0,
						"boxanimatetime" : 200,
						"enablehscroll" : 1,
						"enablevscroll" : 1,
						"devicewidth" : 0.0,
						"description" : "",
						"digest" : "",
						"tags" : "",
						"style" : "",
						"subpatcher_template" : "",
						"assistshowspatchername" : 0,
						"boxes" : [ 							{
								"box" : 								{
									"id" : "obj-25",
									"linecount" : 2,
									"maxclass" : "newobj",
									"numinlets" : 1,
									"numoutlets" : 1,
									"outlettype" : [ "float" ],
									"patching_rect" : [ 186.233333000000016, 410.0, 27.0, 20.0 ],
									"text" : "sqrt"
								}

							}
, 							{
								"box" : 								{
									"id" : "obj-24",
									"linecount" : 2,
									"maxclass" : "newobj",
									"numinlets" : 1,
									"numoutlets" : 1,
									"outlettype" : [ "" ],
									"patching_rect" : [ 141.233333000000016, 305.0, 120.0, 20.0 ],
									"text" : "if $f1 > 1 then $f1 else 1"
								}

							}
, 							{
								"box" : 								{
									"id" : "obj-23",
									"maxclass" : "newobj",
									"numinlets" : 2,
									"numoutlets" : 1,
									"outlettype" : [ "signal" ],
									"patching_rect" : [ 70.233333000000016, 435.0, 100.0, 20.0 ],
									"text" : "*~"
								}

							}
, 							{
								"box" : 								{
									"id" : "obj-22",
									"linecount" : 2,
									"maxclass" : "newobj",
									"numinlets" : 1,
									"numoutlets" : 1,
									"outlettype" : [ "signal" ],
									"patching_rect" : [ 189.066666333333501, 441.0, 37.0, 20.0 ],
									"text" : "sig~ 1"
								}

							}
, 							{
								"box" : 								{
									"id" : "obj-21",
									"maxclass" : "newobj",
									"numinlets" : 2,
									"numoutlets" : 1,
									"outlettype" : [ "float" ],
									"patching_rect" : [ 185.566666333333501, 338.0, 29.5, 20.0 ],
									"text" : "!/ 1."
								}

							}
, 							{
								"box" : 								{
									"id" : "obj-20",
									"maxclass" : "message",
									"numinlets" : 2,
									"numoutlets" : 1,
									"outlettype" : [ "" ],
									"patching_rect" : [ 400.233333000000016, 131.0, 29.5, 20.0 ],
									"text" : "1"
								}

							}
, 							{
								"box" : 								{
									"format" : 6,
									"id" : "obj-19",
									"maxclass" : "flonum",
									"numinlets" : 1,
									"numoutlets" : 2,
									"outlettype" : [ "", "bang" ],
									"parameter_enable" : 0,
									"patching_rect" : [ 305.233333000000016, 277.0, 50.0, 20.0 ]
								}

							}
, 							{
								"box" : 								{
									"format" : 6,
									"id" : "obj-4",
									"maxclass" : "flonum",
									"numinlets" : 1,
									"numoutlets" : 2,
									"outlettype" : [ "", "bang" ],
									"parameter_enable" : 0,
									"patching_rect" : [ 193.566666333333501, 164.0, 50.0, 20.0 ]
								}

							}
, 							{
								"box" : 								{
									"id" : "obj-50",
									"maxclass" : "message",
									"numinlets" : 2,
									"numoutlets" : 1,
									"outlettype" : [ "" ],
									"patching_rect" : [ 126.233333000000016, 121.0, 29.5, 20.0 ],
									"text" : "1"
								}

							}
, 							{
								"box" : 								{
									"id" : "obj-28",
									"linecount" : 2,
									"maxclass" : "newobj",
									"numinlets" : 1,
									"numoutlets" : 1,
									"outlettype" : [ "signal" ],
									"patching_rect" : [ 86.066666333333501, 321.0, 37.0, 20.0 ],
									"text" : "sig~ 1"
								}

							}
, 							{
								"box" : 								{
									"format" : 6,
									"id" : "obj-29",
									"maxclass" : "flonum",
									"numinlets" : 1,
									"numoutlets" : 2,
									"outlettype" : [ "", "bang" ],
									"parameter_enable" : 0,
									"patching_rect" : [ 438.233333000000016, 298.0, 50.0, 20.0 ]
								}

							}
, 							{
								"box" : 								{
									"format" : 6,
									"id" : "obj-31",
									"maxclass" : "flonum",
									"numinlets" : 1,
									"numoutlets" : 2,
									"outlettype" : [ "", "bang" ],
									"parameter_enable" : 0,
									"patching_rect" : [ 849.233333000000016, 382.0, 50.0, 20.0 ]
								}

							}
, 							{
								"box" : 								{
									"format" : 6,
									"id" : "obj-32",
									"maxclass" : "flonum",
									"numinlets" : 1,
									"numoutlets" : 2,
									"outlettype" : [ "", "bang" ],
									"parameter_enable" : 0,
									"patching_rect" : [ 155.233333000000016, 369.0, 50.0, 20.0 ]
								}

							}
, 							{
								"box" : 								{
									"id" : "obj-33",
									"linecount" : 2,
									"maxclass" : "newobj",
									"numinlets" : 2,
									"numoutlets" : 1,
									"outlettype" : [ "signal" ],
									"patching_rect" : [ 50.0, 207.0, 29.5, 20.0 ],
									"text" : "*~ 1"
								}

							}
, 							{
								"box" : 								{
									"id" : "obj-34",
									"maxclass" : "newobj",
									"numinlets" : 7,
									"numoutlets" : 1,
									"outlettype" : [ "signal" ],
									"patcher" : 									{
										"fileversion" : 1,
										"appversion" : 										{
											"major" : 8,
											"minor" : 2,
											"revision" : 1,
											"architecture" : "x64",
											"modernui" : 1
										}
,
										"classnamespace" : "box",
										"rect" : [ 766.0, 83.0, 640.0, 480.0 ],
										"bglocked" : 0,
										"openinpresentation" : 0,
										"default_fontsize" : 12.0,
										"default_fontface" : 0,
										"default_fontname" : "Arial",
										"gridonopen" : 1,
										"gridsize" : [ 15.0, 15.0 ],
										"gridsnaponopen" : 1,
										"objectsnaponopen" : 1,
										"statusbarvisible" : 2,
										"toolbarvisible" : 1,
										"lefttoolbarpinned" : 0,
										"toptoolbarpinned" : 0,
										"righttoolbarpinned" : 0,
										"bottomtoolbarpinned" : 0,
										"toolbars_unpinned_last_save" : 0,
										"tallnewobj" : 0,
										"boxanimatetime" : 200,
										"enablehscroll" : 1,
										"enablevscroll" : 1,
										"devicewidth" : 0.0,
										"description" : "",
										"digest" : "",
										"tags" : "",
										"style" : "",
										"subpatcher_template" : "",
										"assistshowspatchername" : 0,
										"boxes" : [ 											{
												"box" : 												{
													"id" : "obj-6",
													"maxclass" : "meter~",
													"numinlets" : 1,
													"numoutlets" : 1,
													"outlettype" : [ "float" ],
													"patching_rect" : [ 329.0, 132.0, 80.0, 13.0 ]
												}

											}
, 											{
												"box" : 												{
													"id" : "obj-5",
													"maxclass" : "meter~",
													"numinlets" : 1,
													"numoutlets" : 1,
													"outlettype" : [ "float" ],
													"patching_rect" : [ 386.0, 253.0, 80.0, 13.0 ]
												}

											}
, 											{
												"box" : 												{
													"id" : "obj-3",
													"maxclass" : "meter~",
													"numinlets" : 1,
													"numoutlets" : 1,
													"outlettype" : [ "float" ],
													"patching_rect" : [ 351.0, 198.0, 80.0, 13.0 ]
												}

											}
, 											{
												"box" : 												{
													"id" : "obj-2",
													"maxclass" : "message",
													"numinlets" : 2,
													"numoutlets" : 1,
													"outlettype" : [ "" ],
													"patching_rect" : [ 0.0, 0.0, 35.0, 22.0 ],
													"text" : "clear"
												}

											}
, 											{
												"box" : 												{
													"fontface" : 0,
													"id" : "obj-1",
													"linmarkers" : [ 0.0, 11025.0, 16537.5 ],
													"logmarkers" : [ 0.0, 100.0, 1000.0, 10000.0 ],
													"maxclass" : "filtergraph~",
													"nfilters" : 1,
													"numinlets" : 8,
													"numoutlets" : 7,
													"outlettype" : [ "list", "float", "float", "float", "float", "list", "int" ],
													"parameter_enable" : 0,
													"patching_rect" : [ 356.0, 305.0, 256.0, 128.0 ],
													"setfilter" : [ 0, 0, 1, 0, 0, 40.0, 1.0, 2.5, 0.0, 0.0, 0.0, 0.0, 0.0, 0.0 ]
												}

											}
, 											{
												"box" : 												{
													"id" : "obj-101",
													"maxclass" : "newobj",
													"numinlets" : 1,
													"numoutlets" : 1,
													"outlettype" : [ "" ],
													"patcher" : 													{
														"fileversion" : 1,
														"appversion" : 														{
															"major" : 8,
															"minor" : 2,
															"revision" : 1,
															"architecture" : "x64",
															"modernui" : 1
														}
,
														"classnamespace" : "box",
														"rect" : [ 673.0, 99.0, 640.0, 480.0 ],
														"bglocked" : 0,
														"openinpresentation" : 0,
														"default_fontsize" : 12.0,
														"default_fontface" : 0,
														"default_fontname" : "Arial",
														"gridonopen" : 1,
														"gridsize" : [ 15.0, 15.0 ],
														"gridsnaponopen" : 1,
														"objectsnaponopen" : 1,
														"statusbarvisible" : 2,
														"toolbarvisible" : 1,
														"lefttoolbarpinned" : 0,
														"toptoolbarpinned" : 0,
														"righttoolbarpinned" : 0,
														"bottomtoolbarpinned" : 0,
														"toolbars_unpinned_last_save" : 0,
														"tallnewobj" : 0,
														"boxanimatetime" : 200,
														"enablehscroll" : 1,
														"enablevscroll" : 1,
														"devicewidth" : 0.0,
														"description" : "",
														"digest" : "",
														"tags" : "",
														"style" : "",
														"subpatcher_template" : "",
														"assistshowspatchername" : 0,
														"boxes" : [ 															{
																"box" : 																{
																	"id" : "obj-44",
																	"maxclass" : "newobj",
																	"numinlets" : 1,
																	"numoutlets" : 1,
																	"outlettype" : [ "" ],
																	"patching_rect" : [ 487.0, 85.0, 132.0, 22.0 ],
																	"text" : "expr pow( 10\\, $f1 / 20 )"
																}

															}
, 															{
																"box" : 																{
																	"id" : "obj-3",
																	"maxclass" : "newobj",
																	"numinlets" : 4,
																	"numoutlets" : 1,
																	"outlettype" : [ "" ],
																	"patching_rect" : [ 137.0, 60.0, 188.0, 22.0 ],
																	"text" : "secondOrderCoefficientCalculator"
																}

															}
, 															{
																"box" : 																{
																	"fontname" : "Andale Mono",
																	"fontsize" : 10.0,
																	"id" : "obj-23",
																	"maxclass" : "newobj",
																	"numinlets" : 1,
																	"numoutlets" : 1,
																	"outlettype" : [ "" ],
																	"patcher" : 																	{
																		"fileversion" : 1,
																		"appversion" : 																		{
																			"major" : 8,
																			"minor" : 2,
																			"revision" : 1,
																			"architecture" : "x64",
																			"modernui" : 1
																		}
,
																		"classnamespace" : "box",
																		"rect" : [ 101.0, 318.0, 640.0, 480.0 ],
																		"bglocked" : 0,
																		"openinpresentation" : 0,
																		"default_fontsize" : 10.0,
																		"default_fontface" : 0,
																		"default_fontname" : "Andale Mono",
																		"gridonopen" : 1,
																		"gridsize" : [ 10.0, 10.0 ],
																		"gridsnaponopen" : 1,
																		"objectsnaponopen" : 1,
																		"statusbarvisible" : 2,
																		"toolbarvisible" : 1,
																		"lefttoolbarpinned" : 0,
																		"toptoolbarpinned" : 0,
																		"righttoolbarpinned" : 0,
																		"bottomtoolbarpinned" : 0,
																		"toolbars_unpinned_last_save" : 0,
																		"tallnewobj" : 0,
																		"boxanimatetime" : 200,
																		"enablehscroll" : 1,
																		"enablevscroll" : 1,
																		"devicewidth" : 0.0,
																		"description" : "",
																		"digest" : "",
																		"tags" : "",
																		"style" : "",
																		"subpatcher_template" : "",
																		"assistshowspatchername" : 0,
																		"boxes" : [ 																			{
																				"box" : 																				{
																					"id" : "obj-13",
																					"maxclass" : "message",
																					"numinlets" : 2,
																					"numoutlets" : 1,
																					"outlettype" : [ "" ],
																					"patching_rect" : [ 205.0, 114.0, 29.5, 20.0 ],
																					"text" : "$3"
																				}

																			}
, 																			{
																				"box" : 																				{
																					"id" : "obj-10",
																					"maxclass" : "newobj",
																					"numinlets" : 1,
																					"numoutlets" : 2,
																					"outlettype" : [ "", "" ],
																					"patching_rect" : [ 138.0, 86.0, 39.0, 20.0 ],
																					"text" : "t l l"
																				}

																			}
, 																			{
																				"box" : 																				{
																					"id" : "obj-12",
																					"maxclass" : "newobj",
																					"numinlets" : 1,
																					"numoutlets" : 1,
																					"outlettype" : [ "" ],
																					"patcher" : 																					{
																						"fileversion" : 1,
																						"appversion" : 																						{
																							"major" : 8,
																							"minor" : 2,
																							"revision" : 1,
																							"architecture" : "x64",
																							"modernui" : 1
																						}
,
																						"classnamespace" : "box",
																						"rect" : [ 109.0, 154.0, 946.0, 612.0 ],
																						"bglocked" : 0,
																						"openinpresentation" : 0,
																						"default_fontsize" : 12.0,
																						"default_fontface" : 0,
																						"default_fontname" : "Arial",
																						"gridonopen" : 1,
																						"gridsize" : [ 15.0, 15.0 ],
																						"gridsnaponopen" : 1,
																						"objectsnaponopen" : 1,
																						"statusbarvisible" : 2,
																						"toolbarvisible" : 1,
																						"lefttoolbarpinned" : 0,
																						"toptoolbarpinned" : 0,
																						"righttoolbarpinned" : 0,
																						"bottomtoolbarpinned" : 0,
																						"toolbars_unpinned_last_save" : 0,
																						"tallnewobj" : 0,
																						"boxanimatetime" : 200,
																						"enablehscroll" : 1,
																						"enablevscroll" : 1,
																						"devicewidth" : 0.0,
																						"description" : "",
																						"digest" : "",
																						"tags" : "",
																						"style" : "",
																						"subpatcher_template" : "",
																						"assistshowspatchername" : 0,
																						"boxes" : [ 																							{
																								"box" : 																								{
																									"id" : "obj-5",
																									"maxclass" : "newobj",
																									"numinlets" : 1,
																									"numoutlets" : 1,
																									"outlettype" : [ "float" ],
																									"patching_rect" : [ 342.5, 179.0, 29.0, 22.0 ],
																									"text" : "sqrt"
																								}

																							}
, 																							{
																								"box" : 																								{
																									"id" : "obj-79",
																									"maxclass" : "comment",
																									"numinlets" : 1,
																									"numoutlets" : 0,
																									"patching_rect" : [ 557.0, 416.0, 150.0, 20.0 ]
																								}

																							}
, 																							{
																								"box" : 																								{
																									"id" : "obj-77",
																									"maxclass" : "newobj",
																									"numinlets" : 4,
																									"numoutlets" : 1,
																									"outlettype" : [ "" ],
																									"patching_rect" : [ 24.5, 233.0, 347.0, 22.0 ],
																									"text" : "pack 0. 0. 0. 0."
																								}

																							}
, 																							{
																								"box" : 																								{
																									"id" : "obj-73",
																									"linecount" : 3,
																									"maxclass" : "newobj",
																									"numinlets" : 4,
																									"numoutlets" : 1,
																									"outlettype" : [ "" ],
																									"patching_rect" : [ 648.0, 317.5, 85.0, 49.0 ],
																									"text" : "expr 1/ ($f3 + $f1*$f2*$f4 + $f1*$f1)"
																								}

																							}
, 																							{
																								"box" : 																								{
																									"id" : "obj-72",
																									"linecount" : 2,
																									"maxclass" : "newobj",
																									"numinlets" : 3,
																									"numoutlets" : 1,
																									"outlettype" : [ "" ],
																									"patching_rect" : [ 24.5, 317.5, 115.0, 35.0 ],
																									"text" : "expr $f3*(1 + $f1*$f2+$f1*$f1)"
																								}

																							}
, 																							{
																								"box" : 																								{
																									"id" : "obj-71",
																									"linecount" : 3,
																									"maxclass" : "newobj",
																									"numinlets" : 3,
																									"numoutlets" : 1,
																									"outlettype" : [ "" ],
																									"patching_rect" : [ 152.0, 317.5, 87.0, 49.0 ],
																									"text" : "expr 2*$f3*($f1*$f1- 1)"
																								}

																							}
, 																							{
																								"box" : 																								{
																									"id" : "obj-70",
																									"linecount" : 2,
																									"maxclass" : "newobj",
																									"numinlets" : 3,
																									"numoutlets" : 1,
																									"outlettype" : [ "" ],
																									"patching_rect" : [ 243.0, 317.5, 97.0, 35.0 ],
																									"text" : "expr $f3*(1 - $f1*$f2+$f1*$f1)"
																								}

																							}
, 																							{
																								"box" : 																								{
																									"id" : "obj-69",
																									"linecount" : 2,
																									"maxclass" : "newobj",
																									"numinlets" : 3,
																									"numoutlets" : 1,
																									"outlettype" : [ "" ],
																									"patching_rect" : [ 348.0, 317.5, 98.0, 35.0 ],
																									"text" : "expr 2*($f1*$f1 - $f3 )"
																								}

																							}
, 																							{
																								"box" : 																								{
																									"id" : "obj-68",
																									"linecount" : 2,
																									"maxclass" : "newobj",
																									"numinlets" : 4,
																									"numoutlets" : 1,
																									"outlettype" : [ "" ],
																									"patching_rect" : [ 472.0, 317.5, 139.0, 35.0 ],
																									"text" : "expr $f3 - $f1*$f2*$f4 + $f1*$f1"
																								}

																							}
, 																							{
																								"box" : 																								{
																									"id" : "obj-43",
																									"maxclass" : "comment",
																									"numinlets" : 1,
																									"numoutlets" : 0,
																									"patching_rect" : [ 222.5, 179.0, 38.0, 20.0 ],
																									"text" : "root2"
																								}

																							}
, 																							{
																								"box" : 																								{
																									"id" : "obj-39",
																									"maxclass" : "newobj",
																									"numinlets" : 1,
																									"numoutlets" : 1,
																									"outlettype" : [ "" ],
																									"patching_rect" : [ 158.5, 179.0, 62.0, 22.0 ],
																									"text" : "expr 1/$f1"
																								}

																							}
, 																							{
																								"box" : 																								{
																									"id" : "obj-20",
																									"maxclass" : "newobj",
																									"numinlets" : 2,
																									"numoutlets" : 1,
																									"outlettype" : [ "float" ],
																									"patching_rect" : [ 205.5, 445.0, 29.5, 22.0 ],
																									"text" : "* 1."
																								}

																							}
, 																							{
																								"box" : 																								{
																									"id" : "obj-21",
																									"maxclass" : "newobj",
																									"numinlets" : 2,
																									"numoutlets" : 1,
																									"outlettype" : [ "float" ],
																									"patching_rect" : [ 153.5, 445.0, 29.5, 22.0 ],
																									"text" : "* 1."
																								}

																							}
, 																							{
																								"box" : 																								{
																									"id" : "obj-9",
																									"maxclass" : "newobj",
																									"numinlets" : 2,
																									"numoutlets" : 1,
																									"outlettype" : [ "float" ],
																									"patching_rect" : [ 109.5, 445.0, 29.5, 22.0 ],
																									"text" : "* 1."
																								}

																							}
, 																							{
																								"box" : 																								{
																									"id" : "obj-22",
																									"maxclass" : "newobj",
																									"numinlets" : 2,
																									"numoutlets" : 1,
																									"outlettype" : [ "float" ],
																									"patching_rect" : [ 68.5, 445.0, 29.5, 22.0 ],
																									"text" : "* 1."
																								}

																							}
, 																							{
																								"box" : 																								{
																									"id" : "obj-23",
																									"maxclass" : "newobj",
																									"numinlets" : 2,
																									"numoutlets" : 1,
																									"outlettype" : [ "float" ],
																									"patching_rect" : [ 24.5, 445.0, 29.5, 22.0 ],
																									"text" : "* 1."
																								}

																							}
, 																							{
																								"box" : 																								{
																									"id" : "obj-6",
																									"maxclass" : "newobj",
																									"numinlets" : 5,
																									"numoutlets" : 1,
																									"outlettype" : [ "" ],
																									"patching_rect" : [ 24.5, 479.0, 191.0, 22.0 ],
																									"text" : "pack 0. 0. 0. 0. 0."
																								}

																							}
, 																							{
																								"box" : 																								{
																									"comment" : "",
																									"id" : "obj-24",
																									"index" : 1,
																									"maxclass" : "outlet",
																									"numinlets" : 1,
																									"numoutlets" : 0,
																									"patching_rect" : [ 24.5, 531.0, 30.0, 30.0 ]
																								}

																							}
, 																							{
																								"box" : 																								{
																									"fontname" : "Andale Mono",
																									"fontsize" : 10.0,
																									"id" : "obj-3",
																									"maxclass" : "comment",
																									"numinlets" : 1,
																									"numoutlets" : 0,
																									"patching_rect" : [ 252.0, 20.0, 30.0, 18.0 ],
																									"text" : "Q"
																								}

																							}
, 																							{
																								"box" : 																								{
																									"fontname" : "Andale Mono",
																									"fontsize" : 10.0,
																									"id" : "obj-14",
																									"maxclass" : "comment",
																									"numinlets" : 1,
																									"numoutlets" : 0,
																									"patching_rect" : [ 370.0, 20.0, 30.0, 18.0 ],
																									"text" : "V0"
																								}

																							}
, 																							{
																								"box" : 																								{
																									"fontname" : "Andale Mono",
																									"fontsize" : 10.0,
																									"id" : "obj-4",
																									"maxclass" : "comment",
																									"numinlets" : 1,
																									"numoutlets" : 0,
																									"patching_rect" : [ 110.0, 20.0, 30.0, 18.0 ],
																									"text" : "K"
																								}

																							}
, 																							{
																								"box" : 																								{
																									"id" : "obj-2",
																									"maxclass" : "newobj",
																									"numinlets" : 1,
																									"numoutlets" : 3,
																									"outlettype" : [ "float", "float", "float" ],
																									"patching_rect" : [ 24.5, 140.0, 287.0, 22.0 ],
																									"text" : "unpack 0. 0. 0."
																								}

																							}
, 																							{
																								"box" : 																								{
																									"comment" : "",
																									"id" : "obj-1",
																									"index" : 1,
																									"maxclass" : "inlet",
																									"numinlets" : 0,
																									"numoutlets" : 1,
																									"outlettype" : [ "" ],
																									"patching_rect" : [ 67.0, 25.0, 30.0, 30.0 ]
																								}

																							}
 ],
																						"lines" : [ 																							{
																								"patchline" : 																								{
																									"destination" : [ "obj-2", 0 ],
																									"source" : [ "obj-1", 0 ]
																								}

																							}
, 																							{
																								"patchline" : 																								{
																									"destination" : [ "obj-39", 0 ],
																									"source" : [ "obj-2", 1 ]
																								}

																							}
, 																							{
																								"patchline" : 																								{
																									"destination" : [ "obj-5", 0 ],
																									"order" : 0,
																									"source" : [ "obj-2", 2 ]
																								}

																							}
, 																							{
																								"patchline" : 																								{
																									"destination" : [ "obj-77", 2 ],
																									"order" : 1,
																									"source" : [ "obj-2", 2 ]
																								}

																							}
, 																							{
																								"patchline" : 																								{
																									"destination" : [ "obj-77", 0 ],
																									"source" : [ "obj-2", 0 ]
																								}

																							}
, 																							{
																								"patchline" : 																								{
																									"destination" : [ "obj-6", 4 ],
																									"source" : [ "obj-20", 0 ]
																								}

																							}
, 																							{
																								"patchline" : 																								{
																									"destination" : [ "obj-6", 3 ],
																									"source" : [ "obj-21", 0 ]
																								}

																							}
, 																							{
																								"patchline" : 																								{
																									"destination" : [ "obj-6", 1 ],
																									"source" : [ "obj-22", 0 ]
																								}

																							}
, 																							{
																								"patchline" : 																								{
																									"destination" : [ "obj-6", 0 ],
																									"source" : [ "obj-23", 0 ]
																								}

																							}
, 																							{
																								"patchline" : 																								{
																									"destination" : [ "obj-77", 1 ],
																									"source" : [ "obj-39", 0 ]
																								}

																							}
, 																							{
																								"patchline" : 																								{
																									"destination" : [ "obj-77", 3 ],
																									"source" : [ "obj-5", 0 ]
																								}

																							}
, 																							{
																								"patchline" : 																								{
																									"destination" : [ "obj-24", 0 ],
																									"source" : [ "obj-6", 0 ]
																								}

																							}
, 																							{
																								"patchline" : 																								{
																									"destination" : [ "obj-20", 0 ],
																									"source" : [ "obj-68", 0 ]
																								}

																							}
, 																							{
																								"patchline" : 																								{
																									"destination" : [ "obj-21", 0 ],
																									"source" : [ "obj-69", 0 ]
																								}

																							}
, 																							{
																								"patchline" : 																								{
																									"destination" : [ "obj-9", 0 ],
																									"source" : [ "obj-70", 0 ]
																								}

																							}
, 																							{
																								"patchline" : 																								{
																									"destination" : [ "obj-22", 0 ],
																									"source" : [ "obj-71", 0 ]
																								}

																							}
, 																							{
																								"patchline" : 																								{
																									"destination" : [ "obj-23", 0 ],
																									"source" : [ "obj-72", 0 ]
																								}

																							}
, 																							{
																								"patchline" : 																								{
																									"destination" : [ "obj-20", 1 ],
																									"midpoints" : [ 657.5, 436.25, 225.5, 436.25 ],
																									"order" : 0,
																									"source" : [ "obj-73", 0 ]
																								}

																							}
, 																							{
																								"patchline" : 																								{
																									"destination" : [ "obj-21", 1 ],
																									"midpoints" : [ 657.5, 436.25, 173.5, 436.25 ],
																									"order" : 1,
																									"source" : [ "obj-73", 0 ]
																								}

																							}
, 																							{
																								"patchline" : 																								{
																									"destination" : [ "obj-22", 1 ],
																									"midpoints" : [ 657.5, 436.25, 88.5, 436.25 ],
																									"order" : 3,
																									"source" : [ "obj-73", 0 ]
																								}

																							}
, 																							{
																								"patchline" : 																								{
																									"destination" : [ "obj-23", 1 ],
																									"midpoints" : [ 657.5, 436.25, 44.5, 436.25 ],
																									"order" : 4,
																									"source" : [ "obj-73", 0 ]
																								}

																							}
, 																							{
																								"patchline" : 																								{
																									"destination" : [ "obj-9", 1 ],
																									"midpoints" : [ 657.5, 436.25, 129.5, 436.25 ],
																									"order" : 2,
																									"source" : [ "obj-73", 0 ]
																								}

																							}
, 																							{
																								"patchline" : 																								{
																									"destination" : [ "obj-68", 0 ],
																									"order" : 1,
																									"source" : [ "obj-77", 0 ]
																								}

																							}
, 																							{
																								"patchline" : 																								{
																									"destination" : [ "obj-69", 0 ],
																									"order" : 2,
																									"source" : [ "obj-77", 0 ]
																								}

																							}
, 																							{
																								"patchline" : 																								{
																									"destination" : [ "obj-70", 0 ],
																									"order" : 3,
																									"source" : [ "obj-77", 0 ]
																								}

																							}
, 																							{
																								"patchline" : 																								{
																									"destination" : [ "obj-71", 0 ],
																									"order" : 4,
																									"source" : [ "obj-77", 0 ]
																								}

																							}
, 																							{
																								"patchline" : 																								{
																									"destination" : [ "obj-72", 0 ],
																									"order" : 5,
																									"source" : [ "obj-77", 0 ]
																								}

																							}
, 																							{
																								"patchline" : 																								{
																									"destination" : [ "obj-73", 0 ],
																									"order" : 0,
																									"source" : [ "obj-77", 0 ]
																								}

																							}
, 																							{
																								"patchline" : 																								{
																									"destination" : [ "obj-6", 2 ],
																									"source" : [ "obj-9", 0 ]
																								}

																							}
 ],
																						"bgcolor" : [ 0.56078431372549, 0.56078431372549, 0.56078431372549, 1.0 ],
																						"editing_bgcolor" : [ 0.56078431372549, 0.56078431372549, 0.56078431372549, 1.0 ]
																					}
,
																					"patching_rect" : [ 177.0, 241.0, 39.0, 20.0 ],
																					"saved_object_attributes" : 																					{
																						"description" : "",
																						"digest" : "",
																						"editing_bgcolor" : [ 0.56078431372549, 0.56078431372549, 0.56078431372549, 1.0 ],
																						"globalpatchername" : "",
																						"locked_bgcolor" : [ 0.56078431372549, 0.56078431372549, 0.56078431372549, 1.0 ],
																						"tags" : ""
																					}
,
																					"text" : "p cut"
																				}

																			}
, 																			{
																				"box" : 																				{
																					"id" : "obj-9",
																					"maxclass" : "newobj",
																					"numinlets" : 2,
																					"numoutlets" : 1,
																					"outlettype" : [ "int" ],
																					"patching_rect" : [ 205.0, 175.0, 29.5, 20.0 ],
																					"text" : "+ 1"
																				}

																			}
, 																			{
																				"box" : 																				{
																					"id" : "obj-7",
																					"maxclass" : "newobj",
																					"numinlets" : 2,
																					"numoutlets" : 2,
																					"outlettype" : [ "", "" ],
																					"patching_rect" : [ 112.0, 174.0, 57.0, 20.0 ],
																					"text" : "gate 2 1"
																				}

																			}
, 																			{
																				"box" : 																				{
																					"id" : "obj-5",
																					"maxclass" : "newobj",
																					"numinlets" : 2,
																					"numoutlets" : 1,
																					"outlettype" : [ "int" ],
																					"patching_rect" : [ 205.0, 145.0, 33.0, 20.0 ],
																					"text" : "< 1."
																				}

																			}
, 																			{
																				"box" : 																				{
																					"id" : "obj-74",
																					"maxclass" : "comment",
																					"numinlets" : 1,
																					"numoutlets" : 0,
																					"patching_rect" : [ 439.0, 380.0, 150.0, 18.0 ],
																					"text" : "Zolzer DAFX p64"
																				}

																			}
, 																			{
																				"box" : 																				{
																					"id" : "obj-4",
																					"maxclass" : "newobj",
																					"numinlets" : 1,
																					"numoutlets" : 1,
																					"outlettype" : [ "" ],
																					"patcher" : 																					{
																						"fileversion" : 1,
																						"appversion" : 																						{
																							"major" : 8,
																							"minor" : 2,
																							"revision" : 1,
																							"architecture" : "x64",
																							"modernui" : 1
																						}
,
																						"classnamespace" : "box",
																						"rect" : [ 109.0, 154.0, 946.0, 612.0 ],
																						"bglocked" : 0,
																						"openinpresentation" : 0,
																						"default_fontsize" : 12.0,
																						"default_fontface" : 0,
																						"default_fontname" : "Arial",
																						"gridonopen" : 1,
																						"gridsize" : [ 15.0, 15.0 ],
																						"gridsnaponopen" : 1,
																						"objectsnaponopen" : 1,
																						"statusbarvisible" : 2,
																						"toolbarvisible" : 1,
																						"lefttoolbarpinned" : 0,
																						"toptoolbarpinned" : 0,
																						"righttoolbarpinned" : 0,
																						"bottomtoolbarpinned" : 0,
																						"toolbars_unpinned_last_save" : 0,
																						"tallnewobj" : 0,
																						"boxanimatetime" : 200,
																						"enablehscroll" : 1,
																						"enablevscroll" : 1,
																						"devicewidth" : 0.0,
																						"description" : "",
																						"digest" : "",
																						"tags" : "",
																						"style" : "",
																						"subpatcher_template" : "",
																						"assistshowspatchername" : 0,
																						"boxes" : [ 																							{
																								"box" : 																								{
																									"id" : "obj-79",
																									"maxclass" : "comment",
																									"numinlets" : 1,
																									"numoutlets" : 0,
																									"patching_rect" : [ 557.0, 416.0, 150.0, 20.0 ]
																								}

																							}
, 																							{
																								"box" : 																								{
																									"id" : "obj-77",
																									"maxclass" : "newobj",
																									"numinlets" : 3,
																									"numoutlets" : 1,
																									"outlettype" : [ "" ],
																									"patching_rect" : [ 24.5, 233.0, 287.0, 22.0 ],
																									"text" : "pack 0. 0. 0."
																								}

																							}
, 																							{
																								"box" : 																								{
																									"id" : "obj-73",
																									"maxclass" : "newobj",
																									"numinlets" : 2,
																									"numoutlets" : 1,
																									"outlettype" : [ "" ],
																									"patching_rect" : [ 603.0, 317.5, 167.0, 22.0 ],
																									"text" : "expr 1/ (1 + $f1*$f2 + $f1*$f1)"
																								}

																							}
, 																							{
																								"box" : 																								{
																									"id" : "obj-72",
																									"linecount" : 3,
																									"maxclass" : "newobj",
																									"numinlets" : 3,
																									"numoutlets" : 1,
																									"outlettype" : [ "" ],
																									"patching_rect" : [ 24.5, 317.5, 116.0, 49.0 ],
																									"text" : "expr 1 + $f2*sqrt($f3)*$f1 + $f1*$f1*$f3"
																								}

																							}
, 																							{
																								"box" : 																								{
																									"id" : "obj-71",
																									"linecount" : 3,
																									"maxclass" : "newobj",
																									"numinlets" : 3,
																									"numoutlets" : 1,
																									"outlettype" : [ "" ],
																									"patching_rect" : [ 152.0, 317.5, 95.0, 49.0 ],
																									"text" : "expr 2*($f1*$f1*$f3 - 1)"
																								}

																							}
, 																							{
																								"box" : 																								{
																									"id" : "obj-70",
																									"linecount" : 3,
																									"maxclass" : "newobj",
																									"numinlets" : 3,
																									"numoutlets" : 1,
																									"outlettype" : [ "" ],
																									"patching_rect" : [ 254.0, 317.5, 125.0, 49.0 ],
																									"text" : "expr 1 - $f2*sqrt($f3)*$f1 + $f1*$f1*$f3"
																								}

																							}
, 																							{
																								"box" : 																								{
																									"id" : "obj-69",
																									"linecount" : 2,
																									"maxclass" : "newobj",
																									"numinlets" : 1,
																									"numoutlets" : 1,
																									"outlettype" : [ "" ],
																									"patching_rect" : [ 383.0, 317.5, 86.0, 35.0 ],
																									"text" : "expr 2*($f1*$f1 - 1)"
																								}

																							}
, 																							{
																								"box" : 																								{
																									"id" : "obj-68",
																									"linecount" : 2,
																									"maxclass" : "newobj",
																									"numinlets" : 2,
																									"numoutlets" : 1,
																									"outlettype" : [ "" ],
																									"patching_rect" : [ 472.0, 317.5, 104.0, 35.0 ],
																									"text" : "expr 1 - $f1*$f2 + $f1*$f1"
																								}

																							}
, 																							{
																								"box" : 																								{
																									"id" : "obj-43",
																									"maxclass" : "comment",
																									"numinlets" : 1,
																									"numoutlets" : 0,
																									"patching_rect" : [ 222.5, 179.0, 38.0, 20.0 ],
																									"text" : "root2"
																								}

																							}
, 																							{
																								"box" : 																								{
																									"id" : "obj-39",
																									"maxclass" : "newobj",
																									"numinlets" : 1,
																									"numoutlets" : 1,
																									"outlettype" : [ "" ],
																									"patching_rect" : [ 158.5, 179.0, 62.0, 22.0 ],
																									"text" : "expr 1/$f1"
																								}

																							}
, 																							{
																								"box" : 																								{
																									"id" : "obj-20",
																									"maxclass" : "newobj",
																									"numinlets" : 2,
																									"numoutlets" : 1,
																									"outlettype" : [ "float" ],
																									"patching_rect" : [ 205.5, 445.0, 29.5, 22.0 ],
																									"text" : "* 1."
																								}

																							}
, 																							{
																								"box" : 																								{
																									"id" : "obj-21",
																									"maxclass" : "newobj",
																									"numinlets" : 2,
																									"numoutlets" : 1,
																									"outlettype" : [ "float" ],
																									"patching_rect" : [ 153.5, 445.0, 29.5, 22.0 ],
																									"text" : "* 1."
																								}

																							}
, 																							{
																								"box" : 																								{
																									"id" : "obj-9",
																									"maxclass" : "newobj",
																									"numinlets" : 2,
																									"numoutlets" : 1,
																									"outlettype" : [ "float" ],
																									"patching_rect" : [ 109.5, 445.0, 29.5, 22.0 ],
																									"text" : "* 1."
																								}

																							}
, 																							{
																								"box" : 																								{
																									"id" : "obj-22",
																									"maxclass" : "newobj",
																									"numinlets" : 2,
																									"numoutlets" : 1,
																									"outlettype" : [ "float" ],
																									"patching_rect" : [ 68.5, 445.0, 29.5, 22.0 ],
																									"text" : "* 1."
																								}

																							}
, 																							{
																								"box" : 																								{
																									"id" : "obj-23",
																									"maxclass" : "newobj",
																									"numinlets" : 2,
																									"numoutlets" : 1,
																									"outlettype" : [ "float" ],
																									"patching_rect" : [ 24.5, 445.0, 29.5, 22.0 ],
																									"text" : "* 1."
																								}

																							}
, 																							{
																								"box" : 																								{
																									"id" : "obj-6",
																									"maxclass" : "newobj",
																									"numinlets" : 5,
																									"numoutlets" : 1,
																									"outlettype" : [ "" ],
																									"patching_rect" : [ 24.5, 479.0, 191.0, 22.0 ],
																									"text" : "pack 0. 0. 0. 0. 0."
																								}

																							}
, 																							{
																								"box" : 																								{
																									"comment" : "",
																									"id" : "obj-24",
																									"index" : 1,
																									"maxclass" : "outlet",
																									"numinlets" : 1,
																									"numoutlets" : 0,
																									"patching_rect" : [ 24.5, 531.0, 30.0, 30.0 ]
																								}

																							}
, 																							{
																								"box" : 																								{
																									"fontname" : "Andale Mono",
																									"fontsize" : 10.0,
																									"id" : "obj-3",
																									"maxclass" : "comment",
																									"numinlets" : 1,
																									"numoutlets" : 0,
																									"patching_rect" : [ 252.0, 20.0, 30.0, 18.0 ],
																									"text" : "Q"
																								}

																							}
, 																							{
																								"box" : 																								{
																									"fontname" : "Andale Mono",
																									"fontsize" : 10.0,
																									"id" : "obj-14",
																									"maxclass" : "comment",
																									"numinlets" : 1,
																									"numoutlets" : 0,
																									"patching_rect" : [ 370.0, 20.0, 30.0, 18.0 ],
																									"text" : "V0"
																								}

																							}
, 																							{
																								"box" : 																								{
																									"fontname" : "Andale Mono",
																									"fontsize" : 10.0,
																									"id" : "obj-4",
																									"maxclass" : "comment",
																									"numinlets" : 1,
																									"numoutlets" : 0,
																									"patching_rect" : [ 110.0, 20.0, 30.0, 18.0 ],
																									"text" : "K"
																								}

																							}
, 																							{
																								"box" : 																								{
																									"id" : "obj-2",
																									"maxclass" : "newobj",
																									"numinlets" : 1,
																									"numoutlets" : 3,
																									"outlettype" : [ "float", "float", "float" ],
																									"patching_rect" : [ 24.5, 141.0, 293.0, 22.0 ],
																									"text" : "unpack 0. 0.7071 0."
																								}

																							}
, 																							{
																								"box" : 																								{
																									"comment" : "",
																									"id" : "obj-1",
																									"index" : 1,
																									"maxclass" : "inlet",
																									"numinlets" : 0,
																									"numoutlets" : 1,
																									"outlettype" : [ "" ],
																									"patching_rect" : [ 67.0, 25.0, 30.0, 30.0 ]
																								}

																							}
 ],
																						"lines" : [ 																							{
																								"patchline" : 																								{
																									"destination" : [ "obj-2", 0 ],
																									"source" : [ "obj-1", 0 ]
																								}

																							}
, 																							{
																								"patchline" : 																								{
																									"destination" : [ "obj-39", 0 ],
																									"source" : [ "obj-2", 1 ]
																								}

																							}
, 																							{
																								"patchline" : 																								{
																									"destination" : [ "obj-77", 2 ],
																									"source" : [ "obj-2", 2 ]
																								}

																							}
, 																							{
																								"patchline" : 																								{
																									"destination" : [ "obj-77", 0 ],
																									"source" : [ "obj-2", 0 ]
																								}

																							}
, 																							{
																								"patchline" : 																								{
																									"destination" : [ "obj-6", 4 ],
																									"source" : [ "obj-20", 0 ]
																								}

																							}
, 																							{
																								"patchline" : 																								{
																									"destination" : [ "obj-6", 3 ],
																									"source" : [ "obj-21", 0 ]
																								}

																							}
, 																							{
																								"patchline" : 																								{
																									"destination" : [ "obj-6", 1 ],
																									"source" : [ "obj-22", 0 ]
																								}

																							}
, 																							{
																								"patchline" : 																								{
																									"destination" : [ "obj-6", 0 ],
																									"source" : [ "obj-23", 0 ]
																								}

																							}
, 																							{
																								"patchline" : 																								{
																									"destination" : [ "obj-77", 1 ],
																									"source" : [ "obj-39", 0 ]
																								}

																							}
, 																							{
																								"patchline" : 																								{
																									"destination" : [ "obj-24", 0 ],
																									"source" : [ "obj-6", 0 ]
																								}

																							}
, 																							{
																								"patchline" : 																								{
																									"destination" : [ "obj-20", 0 ],
																									"source" : [ "obj-68", 0 ]
																								}

																							}
, 																							{
																								"patchline" : 																								{
																									"destination" : [ "obj-21", 0 ],
																									"source" : [ "obj-69", 0 ]
																								}

																							}
, 																							{
																								"patchline" : 																								{
																									"destination" : [ "obj-9", 0 ],
																									"source" : [ "obj-70", 0 ]
																								}

																							}
, 																							{
																								"patchline" : 																								{
																									"destination" : [ "obj-22", 0 ],
																									"source" : [ "obj-71", 0 ]
																								}

																							}
, 																							{
																								"patchline" : 																								{
																									"destination" : [ "obj-23", 0 ],
																									"source" : [ "obj-72", 0 ]
																								}

																							}
, 																							{
																								"patchline" : 																								{
																									"destination" : [ "obj-20", 1 ],
																									"midpoints" : [ 612.5, 436.25, 225.5, 436.25 ],
																									"order" : 0,
																									"source" : [ "obj-73", 0 ]
																								}

																							}
, 																							{
																								"patchline" : 																								{
																									"destination" : [ "obj-21", 1 ],
																									"midpoints" : [ 612.5, 436.25, 173.5, 436.25 ],
																									"order" : 1,
																									"source" : [ "obj-73", 0 ]
																								}

																							}
, 																							{
																								"patchline" : 																								{
																									"destination" : [ "obj-22", 1 ],
																									"midpoints" : [ 612.5, 436.25, 88.5, 436.25 ],
																									"order" : 3,
																									"source" : [ "obj-73", 0 ]
																								}

																							}
, 																							{
																								"patchline" : 																								{
																									"destination" : [ "obj-23", 1 ],
																									"midpoints" : [ 612.5, 436.25, 44.5, 436.25 ],
																									"order" : 4,
																									"source" : [ "obj-73", 0 ]
																								}

																							}
, 																							{
																								"patchline" : 																								{
																									"destination" : [ "obj-9", 1 ],
																									"midpoints" : [ 612.5, 436.25, 129.5, 436.25 ],
																									"order" : 2,
																									"source" : [ "obj-73", 0 ]
																								}

																							}
, 																							{
																								"patchline" : 																								{
																									"destination" : [ "obj-68", 0 ],
																									"order" : 1,
																									"source" : [ "obj-77", 0 ]
																								}

																							}
, 																							{
																								"patchline" : 																								{
																									"destination" : [ "obj-69", 0 ],
																									"order" : 2,
																									"source" : [ "obj-77", 0 ]
																								}

																							}
, 																							{
																								"patchline" : 																								{
																									"destination" : [ "obj-70", 0 ],
																									"order" : 3,
																									"source" : [ "obj-77", 0 ]
																								}

																							}
, 																							{
																								"patchline" : 																								{
																									"destination" : [ "obj-71", 0 ],
																									"order" : 4,
																									"source" : [ "obj-77", 0 ]
																								}

																							}
, 																							{
																								"patchline" : 																								{
																									"destination" : [ "obj-72", 0 ],
																									"order" : 5,
																									"source" : [ "obj-77", 0 ]
																								}

																							}
, 																							{
																								"patchline" : 																								{
																									"destination" : [ "obj-73", 0 ],
																									"order" : 0,
																									"source" : [ "obj-77", 0 ]
																								}

																							}
, 																							{
																								"patchline" : 																								{
																									"destination" : [ "obj-6", 2 ],
																									"source" : [ "obj-9", 0 ]
																								}

																							}
 ],
																						"bgcolor" : [ 0.56078431372549, 0.56078431372549, 0.56078431372549, 1.0 ],
																						"editing_bgcolor" : [ 0.56078431372549, 0.56078431372549, 0.56078431372549, 1.0 ]
																					}
,
																					"patching_rect" : [ 97.0, 241.0, 51.0, 20.0 ],
																					"saved_object_attributes" : 																					{
																						"description" : "",
																						"digest" : "",
																						"editing_bgcolor" : [ 0.56078431372549, 0.56078431372549, 0.56078431372549, 1.0 ],
																						"globalpatchername" : "",
																						"locked_bgcolor" : [ 0.56078431372549, 0.56078431372549, 0.56078431372549, 1.0 ],
																						"tags" : ""
																					}
,
																					"text" : "p boost"
																				}

																			}
, 																			{
																				"box" : 																				{
																					"fontname" : "Andale Mono",
																					"fontsize" : 10.0,
																					"id" : "obj-1",
																					"maxclass" : "comment",
																					"numinlets" : 1,
																					"numoutlets" : 0,
																					"patching_rect" : [ 252.0, 40.0, 30.0, 18.0 ],
																					"text" : "Q"
																				}

																			}
, 																			{
																				"box" : 																				{
																					"fontname" : "Andale Mono",
																					"fontsize" : 10.0,
																					"id" : "obj-14",
																					"maxclass" : "comment",
																					"numinlets" : 1,
																					"numoutlets" : 0,
																					"patching_rect" : [ 370.0, 40.0, 30.0, 18.0 ],
																					"text" : "V0"
																				}

																			}
, 																			{
																				"box" : 																				{
																					"fontname" : "Andale Mono",
																					"fontsize" : 10.0,
																					"id" : "obj-2",
																					"maxclass" : "comment",
																					"numinlets" : 1,
																					"numoutlets" : 0,
																					"patching_rect" : [ 110.0, 20.0, 30.0, 18.0 ],
																					"text" : "K"
																				}

																			}
, 																			{
																				"box" : 																				{
																					"comment" : "",
																					"id" : "obj-53",
																					"index" : 1,
																					"maxclass" : "inlet",
																					"numinlets" : 0,
																					"numoutlets" : 1,
																					"outlettype" : [ "" ],
																					"patching_rect" : [ 110.0, 40.0, 25.0, 25.0 ]
																				}

																			}
, 																			{
																				"box" : 																				{
																					"comment" : "",
																					"id" : "obj-57",
																					"index" : 1,
																					"maxclass" : "outlet",
																					"numinlets" : 1,
																					"numoutlets" : 0,
																					"patching_rect" : [ 120.0, 438.0, 25.0, 25.0 ]
																				}

																			}
 ],
																		"lines" : [ 																			{
																				"patchline" : 																				{
																					"destination" : [ "obj-13", 0 ],
																					"source" : [ "obj-10", 1 ]
																				}

																			}
, 																			{
																				"patchline" : 																				{
																					"destination" : [ "obj-7", 1 ],
																					"source" : [ "obj-10", 0 ]
																				}

																			}
, 																			{
																				"patchline" : 																				{
																					"destination" : [ "obj-57", 0 ],
																					"source" : [ "obj-12", 0 ]
																				}

																			}
, 																			{
																				"patchline" : 																				{
																					"destination" : [ "obj-5", 0 ],
																					"source" : [ "obj-13", 0 ]
																				}

																			}
, 																			{
																				"patchline" : 																				{
																					"destination" : [ "obj-57", 0 ],
																					"source" : [ "obj-4", 0 ]
																				}

																			}
, 																			{
																				"patchline" : 																				{
																					"destination" : [ "obj-9", 0 ],
																					"source" : [ "obj-5", 0 ]
																				}

																			}
, 																			{
																				"patchline" : 																				{
																					"destination" : [ "obj-10", 0 ],
																					"source" : [ "obj-53", 0 ]
																				}

																			}
, 																			{
																				"patchline" : 																				{
																					"destination" : [ "obj-12", 0 ],
																					"source" : [ "obj-7", 1 ]
																				}

																			}
, 																			{
																				"patchline" : 																				{
																					"destination" : [ "obj-4", 0 ],
																					"source" : [ "obj-7", 0 ]
																				}

																			}
, 																			{
																				"patchline" : 																				{
																					"destination" : [ "obj-7", 0 ],
																					"source" : [ "obj-9", 0 ]
																				}

																			}
 ],
																		"bgcolor" : [ 0.56078431372549, 0.56078431372549, 0.56078431372549, 1.0 ],
																		"editing_bgcolor" : [ 0.56078431372549, 0.56078431372549, 0.56078431372549, 1.0 ]
																	}
,
																	"patching_rect" : [ 378.0, 161.0, 117.0, 20.0 ],
																	"saved_object_attributes" : 																	{
																		"description" : "",
																		"digest" : "",
																		"editing_bgcolor" : [ 0.56078431372549, 0.56078431372549, 0.56078431372549, 1.0 ],
																		"fontname" : "Andale Mono",
																		"fontsize" : 10.0,
																		"globalpatchername" : "",
																		"locked_bgcolor" : [ 0.56078431372549, 0.56078431372549, 0.56078431372549, 1.0 ],
																		"tags" : ""
																	}
,
																	"text" : "p 2ndOrderLowShelf"
																}

															}
, 															{
																"box" : 																{
																	"id" : "obj-21",
																	"maxclass" : "newobj",
																	"numinlets" : 3,
																	"numoutlets" : 1,
																	"outlettype" : [ "" ],
																	"patching_rect" : [ 378.0, 128.0, 135.0, 22.0 ],
																	"text" : "pak 0.007134 0.7071 0."
																}

															}
, 															{
																"box" : 																{
																	"id" : "obj-2",
																	"linecount" : 10,
																	"maxclass" : "message",
																	"numinlets" : 2,
																	"numoutlets" : 1,
																	"outlettype" : [ "" ],
																	"patching_rect" : [ 293.0, 268.0, 50.0, 143.0 ],
																	"text" : "0.991125 -1.962253 0.971327 -1.961998 0.962707"
																}

															}
, 															{
																"box" : 																{
																	"comment" : "",
																	"id" : "obj-94",
																	"index" : 1,
																	"maxclass" : "inlet",
																	"numinlets" : 0,
																	"numoutlets" : 1,
																	"outlettype" : [ "" ],
																	"patching_rect" : [ 486.666646333333119, 40.0, 30.0, 30.0 ]
																}

															}
, 															{
																"box" : 																{
																	"comment" : "",
																	"id" : "obj-100",
																	"index" : 1,
																	"maxclass" : "outlet",
																	"numinlets" : 1,
																	"numoutlets" : 0,
																	"patching_rect" : [ 385.666646333333119, 282.666381999999999, 30.0, 30.0 ]
																}

															}
 ],
														"lines" : [ 															{
																"patchline" : 																{
																	"destination" : [ "obj-23", 0 ],
																	"source" : [ "obj-21", 0 ]
																}

															}
, 															{
																"patchline" : 																{
																	"destination" : [ "obj-100", 0 ],
																	"order" : 0,
																	"source" : [ "obj-23", 0 ]
																}

															}
, 															{
																"patchline" : 																{
																	"destination" : [ "obj-2", 1 ],
																	"order" : 1,
																	"source" : [ "obj-23", 0 ]
																}

															}
, 															{
																"patchline" : 																{
																	"destination" : [ "obj-21", 2 ],
																	"source" : [ "obj-44", 0 ]
																}

															}
, 															{
																"patchline" : 																{
																	"destination" : [ "obj-44", 0 ],
																	"source" : [ "obj-94", 0 ]
																}

															}
 ],
														"bgcolor" : [ 0.56078431372549, 0.56078431372549, 0.56078431372549, 1.0 ],
														"editing_bgcolor" : [ 0.56078431372549, 0.56078431372549, 0.56078431372549, 1.0 ]
													}
,
													"patching_rect" : [ 185.566666666666606, 272.0, 83.0, 22.0 ],
													"saved_object_attributes" : 													{
														"description" : "",
														"digest" : "",
														"editing_bgcolor" : [ 0.56078431372549, 0.56078431372549, 0.56078431372549, 1.0 ],
														"globalpatchername" : "",
														"locked_bgcolor" : [ 0.56078431372549, 0.56078431372549, 0.56078431372549, 1.0 ],
														"tags" : ""
													}
,
													"text" : "p biquadLogic"
												}

											}
, 											{
												"box" : 												{
													"id" : "obj-81",
													"maxclass" : "newobj",
													"numinlets" : 2,
													"numoutlets" : 1,
													"outlettype" : [ "signal" ],
													"patching_rect" : [ 52.233333333333121, 100.0, 29.5, 22.0 ],
													"text" : "*~"
												}

											}
, 											{
												"box" : 												{
													"id" : "obj-76",
													"maxclass" : "newobj",
													"numinlets" : 2,
													"numoutlets" : 1,
													"outlettype" : [ "signal" ],
													"patching_rect" : [ 50.566666666666606, 384.0, 470.0, 22.0 ],
													"text" : "onepole~"
												}

											}
, 											{
												"box" : 												{
													"id" : "obj-48",
													"maxclass" : "newobj",
													"numinlets" : 6,
													"numoutlets" : 1,
													"outlettype" : [ "signal" ],
													"patching_rect" : [ 50.0, 326.5, 286.0, 22.0 ],
													"text" : "biquad~ 1. -1.979823 0.980024 -1.979823 0.980024"
												}

											}
, 											{
												"box" : 												{
													"id" : "obj-36",
													"maxclass" : "newobj",
													"numinlets" : 1,
													"numoutlets" : 1,
													"outlettype" : [ "signal" ],
													"patcher" : 													{
														"fileversion" : 1,
														"appversion" : 														{
															"major" : 8,
															"minor" : 2,
															"revision" : 1,
															"architecture" : "x64",
															"modernui" : 1
														}
,
														"classnamespace" : "box",
														"rect" : [ 84.0, 129.0, 346.0, 344.0 ],
														"bglocked" : 0,
														"openinpresentation" : 0,
														"default_fontsize" : 12.0,
														"default_fontface" : 0,
														"default_fontname" : "Arial",
														"gridonopen" : 1,
														"gridsize" : [ 15.0, 15.0 ],
														"gridsnaponopen" : 1,
														"objectsnaponopen" : 1,
														"statusbarvisible" : 2,
														"toolbarvisible" : 1,
														"lefttoolbarpinned" : 0,
														"toptoolbarpinned" : 0,
														"righttoolbarpinned" : 0,
														"bottomtoolbarpinned" : 0,
														"toolbars_unpinned_last_save" : 0,
														"tallnewobj" : 0,
														"boxanimatetime" : 200,
														"enablehscroll" : 1,
														"enablevscroll" : 1,
														"devicewidth" : 0.0,
														"description" : "",
														"digest" : "",
														"tags" : "",
														"style" : "",
														"subpatcher_template" : "",
														"assistshowspatchername" : 0,
														"boxes" : [ 															{
																"box" : 																{
																	"id" : "obj-24",
																	"maxclass" : "newobj",
																	"numinlets" : 2,
																	"numoutlets" : 1,
																	"outlettype" : [ "signal" ],
																	"patching_rect" : [ 50.0, 106.0, 29.5, 22.0 ],
																	"text" : "-~"
																}

															}
, 															{
																"box" : 																{
																	"id" : "obj-105",
																	"maxclass" : "newobj",
																	"numinlets" : 2,
																	"numoutlets" : 1,
																	"outlettype" : [ "signal" ],
																	"patching_rect" : [ 102.0, 100.0, 68.0, 22.0 ],
																	"text" : "onepole~ 5"
																}

															}
, 															{
																"box" : 																{
																	"comment" : "",
																	"id" : "obj-26",
																	"index" : 1,
																	"maxclass" : "inlet",
																	"numinlets" : 0,
																	"numoutlets" : 1,
																	"outlettype" : [ "" ],
																	"patching_rect" : [ 70.0, 40.0, 30.0, 30.0 ]
																}

															}
, 															{
																"box" : 																{
																	"comment" : "",
																	"id" : "obj-27",
																	"index" : 1,
																	"maxclass" : "outlet",
																	"numinlets" : 1,
																	"numoutlets" : 0,
																	"patching_rect" : [ 50.0, 188.0, 30.0, 30.0 ]
																}

															}
 ],
														"lines" : [ 															{
																"patchline" : 																{
																	"destination" : [ "obj-24", 1 ],
																	"source" : [ "obj-105", 0 ]
																}

															}
, 															{
																"patchline" : 																{
																	"destination" : [ "obj-27", 0 ],
																	"source" : [ "obj-24", 0 ]
																}

															}
, 															{
																"patchline" : 																{
																	"destination" : [ "obj-105", 0 ],
																	"order" : 0,
																	"source" : [ "obj-26", 0 ]
																}

															}
, 															{
																"patchline" : 																{
																	"destination" : [ "obj-24", 0 ],
																	"order" : 1,
																	"source" : [ "obj-26", 0 ]
																}

															}
 ],
														"bgcolor" : [ 0.56078431372549, 0.56078431372549, 0.56078431372549, 1.0 ],
														"editing_bgcolor" : [ 0.56078431372549, 0.56078431372549, 0.56078431372549, 1.0 ]
													}
,
													"patching_rect" : [ 50.566666666666606, 272.0, 98.0, 22.0 ],
													"saved_object_attributes" : 													{
														"description" : "",
														"digest" : "",
														"editing_bgcolor" : [ 0.56078431372549, 0.56078431372549, 0.56078431372549, 1.0 ],
														"globalpatchername" : "",
														"locked_bgcolor" : [ 0.56078431372549, 0.56078431372549, 0.56078431372549, 1.0 ],
														"tags" : ""
													}
,
													"text" : "p hipass_5"
												}

											}
, 											{
												"box" : 												{
													"id" : "obj-13",
													"maxclass" : "newobj",
													"numinlets" : 1,
													"numoutlets" : 1,
													"outlettype" : [ "signal" ],
													"patcher" : 													{
														"fileversion" : 1,
														"appversion" : 														{
															"major" : 8,
															"minor" : 2,
															"revision" : 1,
															"architecture" : "x64",
															"modernui" : 1
														}
,
														"classnamespace" : "box",
														"rect" : [ 84.0, 129.0, 346.0, 344.0 ],
														"bglocked" : 0,
														"openinpresentation" : 0,
														"default_fontsize" : 12.0,
														"default_fontface" : 0,
														"default_fontname" : "Arial",
														"gridonopen" : 1,
														"gridsize" : [ 15.0, 15.0 ],
														"gridsnaponopen" : 1,
														"objectsnaponopen" : 1,
														"statusbarvisible" : 2,
														"toolbarvisible" : 1,
														"lefttoolbarpinned" : 0,
														"toptoolbarpinned" : 0,
														"righttoolbarpinned" : 0,
														"bottomtoolbarpinned" : 0,
														"toolbars_unpinned_last_save" : 0,
														"tallnewobj" : 0,
														"boxanimatetime" : 200,
														"enablehscroll" : 1,
														"enablevscroll" : 1,
														"devicewidth" : 0.0,
														"description" : "",
														"digest" : "",
														"tags" : "",
														"style" : "",
														"subpatcher_template" : "",
														"assistshowspatchername" : 0,
														"boxes" : [ 															{
																"box" : 																{
																	"id" : "obj-24",
																	"maxclass" : "newobj",
																	"numinlets" : 2,
																	"numoutlets" : 1,
																	"outlettype" : [ "signal" ],
																	"patching_rect" : [ 50.0, 106.0, 29.5, 22.0 ],
																	"text" : "-~"
																}

															}
, 															{
																"box" : 																{
																	"id" : "obj-105",
																	"maxclass" : "newobj",
																	"numinlets" : 2,
																	"numoutlets" : 1,
																	"outlettype" : [ "signal" ],
																	"patching_rect" : [ 102.0, 100.0, 68.0, 22.0 ],
																	"text" : "onepole~ 5"
																}

															}
, 															{
																"box" : 																{
																	"comment" : "",
																	"id" : "obj-26",
																	"index" : 1,
																	"maxclass" : "inlet",
																	"numinlets" : 0,
																	"numoutlets" : 1,
																	"outlettype" : [ "signal" ],
																	"patching_rect" : [ 70.0, 40.0, 30.0, 30.0 ]
																}

															}
, 															{
																"box" : 																{
																	"comment" : "",
																	"id" : "obj-27",
																	"index" : 1,
																	"maxclass" : "outlet",
																	"numinlets" : 1,
																	"numoutlets" : 0,
																	"patching_rect" : [ 50.0, 188.0, 30.0, 30.0 ]
																}

															}
 ],
														"lines" : [ 															{
																"patchline" : 																{
																	"destination" : [ "obj-24", 1 ],
																	"source" : [ "obj-105", 0 ]
																}

															}
, 															{
																"patchline" : 																{
																	"destination" : [ "obj-27", 0 ],
																	"source" : [ "obj-24", 0 ]
																}

															}
, 															{
																"patchline" : 																{
																	"destination" : [ "obj-105", 0 ],
																	"order" : 0,
																	"source" : [ "obj-26", 0 ]
																}

															}
, 															{
																"patchline" : 																{
																	"destination" : [ "obj-24", 0 ],
																	"order" : 1,
																	"source" : [ "obj-26", 0 ]
																}

															}
 ],
														"bgcolor" : [ 0.56078431372549, 0.56078431372549, 0.56078431372549, 1.0 ],
														"editing_bgcolor" : [ 0.56078431372549, 0.56078431372549, 0.56078431372549, 1.0 ]
													}
,
													"patching_rect" : [ 50.566666666666606, 210.0, 67.0, 22.0 ],
													"saved_object_attributes" : 													{
														"description" : "",
														"digest" : "",
														"editing_bgcolor" : [ 0.56078431372549, 0.56078431372549, 0.56078431372549, 1.0 ],
														"globalpatchername" : "",
														"locked_bgcolor" : [ 0.56078431372549, 0.56078431372549, 0.56078431372549, 1.0 ],
														"tags" : ""
													}
,
													"text" : "p hipass_5"
												}

											}
, 											{
												"box" : 												{
													"id" : "obj-4",
													"maxclass" : "newobj",
													"numinlets" : 2,
													"numoutlets" : 1,
													"outlettype" : [ "signal" ],
													"patching_rect" : [ 50.566666666666606, 181.0, 215.0, 22.0 ],
													"text" : "pirklePositivePolarityCompressor 2500"
												}

											}
, 											{
												"box" : 												{
													"id" : "obj-29",
													"maxclass" : "newobj",
													"numinlets" : 3,
													"numoutlets" : 1,
													"outlettype" : [ "" ],
													"patching_rect" : [ 50.566666666666606, 238.0, 218.0, 22.0 ],
													"text" : "bandLimWaveshaper1 1000 2000 3000"
												}

											}
, 											{
												"box" : 												{
													"comment" : "",
													"id" : "obj-102",
													"index" : 1,
													"maxclass" : "inlet",
													"numinlets" : 0,
													"numoutlets" : 1,
													"outlettype" : [ "signal" ],
													"patching_rect" : [ 52.233333333333121, 40.0, 30.0, 30.0 ]
												}

											}
, 											{
												"box" : 												{
													"comment" : "",
													"id" : "obj-103",
													"index" : 2,
													"maxclass" : "inlet",
													"numinlets" : 0,
													"numoutlets" : 1,
													"outlettype" : [ "signal" ],
													"patching_rect" : [ 87.233333333333121, 40.0, 30.0, 30.0 ]
												}

											}
, 											{
												"box" : 												{
													"comment" : "",
													"id" : "obj-104",
													"index" : 3,
													"maxclass" : "inlet",
													"numinlets" : 0,
													"numoutlets" : 1,
													"outlettype" : [ "" ],
													"patching_rect" : [ 122.233333333333121, 40.0, 30.0, 30.0 ]
												}

											}
, 											{
												"box" : 												{
													"comment" : "",
													"id" : "obj-105",
													"index" : 4,
													"maxclass" : "inlet",
													"numinlets" : 0,
													"numoutlets" : 1,
													"outlettype" : [ "signal" ],
													"patching_rect" : [ 157.233333333333121, 40.0, 30.0, 30.0 ]
												}

											}
, 											{
												"box" : 												{
													"comment" : "",
													"id" : "obj-106",
													"index" : 5,
													"maxclass" : "inlet",
													"numinlets" : 0,
													"numoutlets" : 1,
													"outlettype" : [ "signal" ],
													"patching_rect" : [ 192.233333333333121, 40.0, 30.0, 30.0 ]
												}

											}
, 											{
												"box" : 												{
													"comment" : "",
													"id" : "obj-107",
													"index" : 6,
													"maxclass" : "inlet",
													"numinlets" : 0,
													"numoutlets" : 1,
													"outlettype" : [ "signal" ],
													"patching_rect" : [ 227.233333333333121, 40.0, 30.0, 30.0 ]
												}

											}
, 											{
												"box" : 												{
													"comment" : "",
													"id" : "obj-108",
													"index" : 7,
													"maxclass" : "inlet",
													"numinlets" : 0,
													"numoutlets" : 1,
													"outlettype" : [ "signal" ],
													"patching_rect" : [ 262.233333333333121, 40.0, 30.0, 30.0 ]
												}

											}
, 											{
												"box" : 												{
													"comment" : "",
													"id" : "obj-110",
													"index" : 1,
													"maxclass" : "outlet",
													"numinlets" : 1,
													"numoutlets" : 0,
													"patching_rect" : [ 50.566666666666606, 442.0, 30.0, 30.0 ]
												}

											}
 ],
										"lines" : [ 											{
												"patchline" : 												{
													"destination" : [ "obj-1", 0 ],
													"order" : 0,
													"source" : [ "obj-101", 0 ]
												}

											}
, 											{
												"patchline" : 												{
													"destination" : [ "obj-48", 0 ],
													"order" : 1,
													"source" : [ "obj-101", 0 ]
												}

											}
, 											{
												"patchline" : 												{
													"destination" : [ "obj-81", 0 ],
													"source" : [ "obj-102", 0 ]
												}

											}
, 											{
												"patchline" : 												{
													"destination" : [ "obj-81", 1 ],
													"source" : [ "obj-103", 0 ]
												}

											}
, 											{
												"patchline" : 												{
													"destination" : [ "obj-101", 0 ],
													"source" : [ "obj-104", 0 ]
												}

											}
, 											{
												"patchline" : 												{
													"destination" : [ "obj-76", 1 ],
													"source" : [ "obj-105", 0 ]
												}

											}
, 											{
												"patchline" : 												{
													"destination" : [ "obj-29", 1 ],
													"source" : [ "obj-106", 0 ]
												}

											}
, 											{
												"patchline" : 												{
													"destination" : [ "obj-29", 2 ],
													"source" : [ "obj-107", 0 ]
												}

											}
, 											{
												"patchline" : 												{
													"destination" : [ "obj-4", 1 ],
													"source" : [ "obj-108", 0 ]
												}

											}
, 											{
												"patchline" : 												{
													"destination" : [ "obj-29", 0 ],
													"source" : [ "obj-13", 0 ]
												}

											}
, 											{
												"patchline" : 												{
													"destination" : [ "obj-48", 0 ],
													"source" : [ "obj-2", 0 ]
												}

											}
, 											{
												"patchline" : 												{
													"destination" : [ "obj-36", 0 ],
													"source" : [ "obj-29", 0 ]
												}

											}
, 											{
												"patchline" : 												{
													"destination" : [ "obj-3", 0 ],
													"order" : 0,
													"source" : [ "obj-36", 0 ]
												}

											}
, 											{
												"patchline" : 												{
													"destination" : [ "obj-48", 0 ],
													"order" : 2,
													"source" : [ "obj-36", 0 ]
												}

											}
, 											{
												"patchline" : 												{
													"destination" : [ "obj-6", 0 ],
													"order" : 1,
													"source" : [ "obj-36", 0 ]
												}

											}
, 											{
												"patchline" : 												{
													"destination" : [ "obj-13", 0 ],
													"source" : [ "obj-4", 0 ]
												}

											}
, 											{
												"patchline" : 												{
													"destination" : [ "obj-5", 0 ],
													"order" : 0,
													"source" : [ "obj-48", 0 ]
												}

											}
, 											{
												"patchline" : 												{
													"destination" : [ "obj-76", 0 ],
													"order" : 1,
													"source" : [ "obj-48", 0 ]
												}

											}
, 											{
												"patchline" : 												{
													"destination" : [ "obj-110", 0 ],
													"source" : [ "obj-76", 0 ]
												}

											}
, 											{
												"patchline" : 												{
													"destination" : [ "obj-4", 0 ],
													"source" : [ "obj-81", 0 ]
												}

											}
 ],
										"bgcolor" : [ 0.56078431372549, 0.56078431372549, 0.56078431372549, 1.0 ],
										"editing_bgcolor" : [ 0.56078431372549, 0.56078431372549, 0.56078431372549, 1.0 ]
									}
,
									"patching_rect" : [ 56.0, 390.0, 82.0, 20.0 ],
									"saved_object_attributes" : 									{
										"description" : "",
										"digest" : "",
										"editing_bgcolor" : [ 0.56078431372549, 0.56078431372549, 0.56078431372549, 1.0 ],
										"globalpatchername" : "",
										"locked_bgcolor" : [ 0.56078431372549, 0.56078431372549, 0.56078431372549, 1.0 ],
										"tags" : ""
									}
,
									"text" : "p valve1"
								}

							}
, 							{
								"box" : 								{
									"floatoutput" : 1,
									"id" : "obj-35",
									"maxclass" : "slider",
									"min" : 1.0,
									"numinlets" : 1,
									"numoutlets" : 1,
									"outlettype" : [ "" ],
									"parameter_enable" : 0,
									"patching_rect" : [ 92.066666333333501, 147.0, 20.0, 140.0 ],
									"size" : 31.0
								}

							}
, 							{
								"box" : 								{
									"id" : "obj-36",
									"linecount" : 2,
									"maxclass" : "newobj",
									"numinlets" : 1,
									"numoutlets" : 1,
									"outlettype" : [ "signal" ],
									"patching_rect" : [ 804.566666333333501, 395.0, 54.0, 20.0 ],
									"text" : "sig~ 1000"
								}

							}
, 							{
								"box" : 								{
									"floatoutput" : 1,
									"id" : "obj-37",
									"maxclass" : "slider",
									"min" : 1000.0,
									"numinlets" : 1,
									"numoutlets" : 1,
									"outlettype" : [ "" ],
									"parameter_enable" : 0,
									"patching_rect" : [ 804.566666333333501, 237.0, 20.0, 140.0 ],
									"size" : 10000.0
								}

							}
, 							{
								"box" : 								{
									"id" : "obj-41",
									"linecount" : 2,
									"maxclass" : "newobj",
									"numinlets" : 1,
									"numoutlets" : 1,
									"outlettype" : [ "signal" ],
									"patching_rect" : [ 265.566666333333501, 382.0, 37.0, 20.0 ],
									"text" : "sig~ 1"
								}

							}
, 							{
								"box" : 								{
									"floatoutput" : 1,
									"id" : "obj-42",
									"maxclass" : "slider",
									"numinlets" : 1,
									"numoutlets" : 1,
									"outlettype" : [ "" ],
									"parameter_enable" : 0,
									"patching_rect" : [ 265.566666333333501, 228.0, 20.0, 140.0 ],
									"size" : 1.476923076923079
								}

							}
, 							{
								"box" : 								{
									"format" : 6,
									"id" : "obj-43",
									"maxclass" : "flonum",
									"numinlets" : 1,
									"numoutlets" : 2,
									"outlettype" : [ "", "bang" ],
									"parameter_enable" : 0,
									"patching_rect" : [ 611.566666333333501, 361.0, 125.0, 20.0 ]
								}

							}
, 							{
								"box" : 								{
									"id" : "obj-44",
									"maxclass" : "newobj",
									"numinlets" : 2,
									"numoutlets" : 1,
									"outlettype" : [ "float" ],
									"patching_rect" : [ 548.566666333333501, 332.0, 44.0, 20.0 ],
									"text" : "pow 3."
								}

							}
, 							{
								"box" : 								{
									"id" : "obj-45",
									"maxclass" : "newobj",
									"numinlets" : 2,
									"numoutlets" : 1,
									"outlettype" : [ "float" ],
									"patching_rect" : [ 549.066666333333501, 381.0, 35.0, 20.0 ],
									"text" : "* 0.5"
								}

							}
, 							{
								"box" : 								{
									"id" : "obj-46",
									"linecount" : 2,
									"maxclass" : "newobj",
									"numinlets" : 1,
									"numoutlets" : 1,
									"outlettype" : [ "signal" ],
									"patching_rect" : [ 546.066666333333501, 426.0, 37.0, 20.0 ],
									"text" : "sig~ 0"
								}

							}
, 							{
								"box" : 								{
									"floatoutput" : 1,
									"id" : "obj-47",
									"maxclass" : "slider",
									"numinlets" : 1,
									"numoutlets" : 1,
									"outlettype" : [ "" ],
									"parameter_enable" : 0,
									"patching_rect" : [ 549.066666333333501, 179.0, 20.0, 140.0 ],
									"size" : 1.0
								}

							}
, 							{
								"box" : 								{
									"id" : "obj-48",
									"linecount" : 2,
									"maxclass" : "newobj",
									"numinlets" : 1,
									"numoutlets" : 1,
									"outlettype" : [ "signal" ],
									"patching_rect" : [ 384.566666333333501, 360.981079000000022, 37.0, 20.0 ],
									"text" : "sig~ 1"
								}

							}
, 							{
								"box" : 								{
									"floatoutput" : 1,
									"id" : "obj-49",
									"maxclass" : "slider",
									"numinlets" : 1,
									"numoutlets" : 1,
									"outlettype" : [ "" ],
									"parameter_enable" : 0,
									"patching_rect" : [ 384.566666333333501, 202.981079000000022, 20.0, 140.0 ],
									"size" : 1.0
								}

							}
, 							{
								"box" : 								{
									"id" : "obj-30",
									"linecount" : 5,
									"maxclass" : "comment",
									"numinlets" : 1,
									"numoutlets" : 0,
									"patching_rect" : [ 553.566666333333501, 100.0, 150.0, 62.0 ],
									"text" : "0 --> 10000\n1 --> 2250\n2 --> 1300\n3 --> 950\n4 --> 700"
								}

							}
, 							{
								"box" : 								{
									"attr" : "size",
									"id" : "obj-14",
									"maxclass" : "attrui",
									"numinlets" : 1,
									"numoutlets" : 1,
									"outlettype" : [ "" ],
									"patching_rect" : [ 203.566665999999998, 192.0, 150.0, 20.0 ]
								}

							}
, 							{
								"box" : 								{
									"comment" : "",
									"id" : "obj-15",
									"index" : 1,
									"maxclass" : "inlet",
									"numinlets" : 0,
									"numoutlets" : 1,
									"outlettype" : [ "" ],
									"patching_rect" : [ 49.99999600000001, 40.0, 30.0, 30.0 ]
								}

							}
, 							{
								"box" : 								{
									"comment" : "",
									"id" : "obj-38",
									"index" : 1,
									"maxclass" : "outlet",
									"numinlets" : 1,
									"numoutlets" : 0,
									"patching_rect" : [ 70.233333000000016, 525.507323999999926, 30.0, 30.0 ]
								}

							}
 ],
						"lines" : [ 							{
								"patchline" : 								{
									"destination" : [ "obj-42", 0 ],
									"source" : [ "obj-14", 0 ]
								}

							}
, 							{
								"patchline" : 								{
									"destination" : [ "obj-33", 0 ],
									"source" : [ "obj-15", 0 ]
								}

							}
, 							{
								"patchline" : 								{
									"destination" : [ "obj-49", 0 ],
									"source" : [ "obj-20", 0 ]
								}

							}
, 							{
								"patchline" : 								{
									"destination" : [ "obj-25", 0 ],
									"source" : [ "obj-21", 0 ]
								}

							}
, 							{
								"patchline" : 								{
									"destination" : [ "obj-23", 1 ],
									"source" : [ "obj-22", 0 ]
								}

							}
, 							{
								"patchline" : 								{
									"destination" : [ "obj-38", 0 ],
									"source" : [ "obj-23", 0 ]
								}

							}
, 							{
								"patchline" : 								{
									"destination" : [ "obj-21", 0 ],
									"source" : [ "obj-24", 0 ]
								}

							}
, 							{
								"patchline" : 								{
									"destination" : [ "obj-22", 0 ],
									"source" : [ "obj-25", 0 ]
								}

							}
, 							{
								"patchline" : 								{
									"destination" : [ "obj-34", 1 ],
									"source" : [ "obj-28", 0 ]
								}

							}
, 							{
								"patchline" : 								{
									"destination" : [ "obj-34", 0 ],
									"source" : [ "obj-33", 0 ]
								}

							}
, 							{
								"patchline" : 								{
									"destination" : [ "obj-23", 0 ],
									"source" : [ "obj-34", 0 ]
								}

							}
, 							{
								"patchline" : 								{
									"destination" : [ "obj-14", 0 ],
									"order" : 0,
									"source" : [ "obj-35", 0 ]
								}

							}
, 							{
								"patchline" : 								{
									"destination" : [ "obj-24", 0 ],
									"order" : 2,
									"source" : [ "obj-35", 0 ]
								}

							}
, 							{
								"patchline" : 								{
									"destination" : [ "obj-28", 0 ],
									"order" : 3,
									"source" : [ "obj-35", 0 ]
								}

							}
, 							{
								"patchline" : 								{
									"destination" : [ "obj-32", 0 ],
									"order" : 1,
									"source" : [ "obj-35", 0 ]
								}

							}
, 							{
								"patchline" : 								{
									"destination" : [ "obj-34", 3 ],
									"source" : [ "obj-36", 0 ]
								}

							}
, 							{
								"patchline" : 								{
									"destination" : [ "obj-31", 0 ],
									"order" : 0,
									"source" : [ "obj-37", 0 ]
								}

							}
, 							{
								"patchline" : 								{
									"destination" : [ "obj-36", 0 ],
									"order" : 1,
									"source" : [ "obj-37", 0 ]
								}

							}
, 							{
								"patchline" : 								{
									"destination" : [ "obj-34", 2 ],
									"source" : [ "obj-4", 0 ]
								}

							}
, 							{
								"patchline" : 								{
									"destination" : [ "obj-34", 6 ],
									"source" : [ "obj-41", 0 ]
								}

							}
, 							{
								"patchline" : 								{
									"destination" : [ "obj-19", 0 ],
									"order" : 0,
									"source" : [ "obj-42", 0 ]
								}

							}
, 							{
								"patchline" : 								{
									"destination" : [ "obj-41", 0 ],
									"order" : 1,
									"source" : [ "obj-42", 0 ]
								}

							}
, 							{
								"patchline" : 								{
									"destination" : [ "obj-43", 0 ],
									"order" : 0,
									"source" : [ "obj-44", 0 ]
								}

							}
, 							{
								"patchline" : 								{
									"destination" : [ "obj-45", 0 ],
									"order" : 1,
									"source" : [ "obj-44", 0 ]
								}

							}
, 							{
								"patchline" : 								{
									"destination" : [ "obj-46", 0 ],
									"source" : [ "obj-45", 0 ]
								}

							}
, 							{
								"patchline" : 								{
									"destination" : [ "obj-34", 5 ],
									"source" : [ "obj-46", 0 ]
								}

							}
, 							{
								"patchline" : 								{
									"destination" : [ "obj-44", 0 ],
									"source" : [ "obj-47", 0 ]
								}

							}
, 							{
								"patchline" : 								{
									"destination" : [ "obj-34", 4 ],
									"source" : [ "obj-48", 0 ]
								}

							}
, 							{
								"patchline" : 								{
									"destination" : [ "obj-29", 0 ],
									"order" : 0,
									"source" : [ "obj-49", 0 ]
								}

							}
, 							{
								"patchline" : 								{
									"destination" : [ "obj-48", 0 ],
									"order" : 1,
									"source" : [ "obj-49", 0 ]
								}

							}
, 							{
								"patchline" : 								{
									"destination" : [ "obj-35", 0 ],
									"source" : [ "obj-50", 0 ]
								}

							}
 ],
						"bgcolor" : [ 0.56078431372549, 0.56078431372549, 0.56078431372549, 1.0 ],
						"editing_bgcolor" : [ 0.56078431372549, 0.56078431372549, 0.56078431372549, 1.0 ]
					}
,
					"patching_rect" : [ 286.766666999999984, 22.0, 849.233333000000016, 22.0 ],
					"saved_object_attributes" : 					{
						"description" : "",
						"digest" : "",
						"editing_bgcolor" : [ 0.56078431372549, 0.56078431372549, 0.56078431372549, 1.0 ],
						"globalpatchername" : "",
						"locked_bgcolor" : [ 0.56078431372549, 0.56078431372549, 0.56078431372549, 1.0 ],
						"tags" : ""
					}
,
					"text" : "p"
				}

			}
 ],
		"lines" : [  ],
		"dependency_cache" : [ 			{
				"name" : "pirklePositivePolarityCompressor.maxpat",
				"bootpath" : "~/Desktop/Stuff_May_2022/MoogFilter",
				"patcherrelativepath" : ".",
				"type" : "JSON",
				"implicit" : 1
			}
, 			{
				"name" : "secondOrderCoefficientCalculator.maxpat",
				"bootpath" : "~/Desktop/Stuff_May_2022/MoogFilter",
				"patcherrelativepath" : ".",
				"type" : "JSON",
				"implicit" : 1
			}
 ],
		"autosave" : 0
	}

}
